<svg width="73" height="65" viewBox="0 0 73 65" fill="none" xmlns="http://www.w3.org/2000/svg">
<rect x="0.535195" y="1.32566" width="71.4729" height="63.0039" rx="8.28042" fill="#88C80C"/>
<rect x="0.535195" y="1.32566" width="71.4729" height="63.0039" rx="8.28042" stroke="#141B23" stroke-width="1.04085"/>
<g clip-path="url(#clip0_38_4354)">
<path d="M37.4267 56.9391C35.8174 56.9391 34.2081 56.3242 33.4462 56.036C30.4335 54.8761 27.709 53.0882 25.4579 50.7939L23.8214 49.1452L25.5823 44.7641L29.6445 41.5551L31.0283 31.6706L40.2217 23.7576L43.2459 22.989L52.1982 13.9615L54.1418 14.2459C55.0347 14.3804 55.8516 14.8201 56.4504 15.4886C57.0491 16.1571 57.3918 17.012 57.4188 17.9045C57.5665 22.3126 55.0204 28.0465 52.4043 33.5345L52.3304 33.6652L45.5433 43.5535L40.9563 55.0829L40.9136 55.152C40.0817 56.524 38.7484 56.9391 37.4267 56.9391ZM26.0877 48.6956L26.8379 49.4642C28.8946 51.5619 31.3846 53.1965 34.1381 54.2566C37.695 55.6132 38.7484 54.9253 39.1915 54.2566L43.8096 42.635L50.6628 32.6429C53.1662 27.3817 55.5918 21.9244 55.4596 17.9622C55.4478 17.5196 55.2796 17.095 54.9842 16.7623C54.6888 16.4295 54.2849 16.2095 53.8425 16.1405L52.9096 16.006L44.2566 24.7222L41.1468 25.5101L32.8553 32.6467L31.4637 42.5773L27.1878 45.9478L26.0877 48.6956Z" fill="#141B23"/>
<path d="M44.6674 23.5351L42.8331 24.1705L47.6419 37.7388L49.4762 37.1033L44.6674 23.5351Z" fill="#141B23"/>
<path d="M29.9903 53.413L28.5792 52.091L33.8114 46.6453L42.9853 46.2994L43.0592 48.2209L34.6744 48.5361L29.9903 53.413Z" fill="#141B23"/>
<path d="M40.0851 54.6639L42.7945 53.2535L44.0539 50.7362L42.4874 48.3189L40.0851 54.6639Z" fill="#141B23"/>
<path d="M38.2804 56.6855L42.2648 46.1861L45.1725 50.6787L43.5282 53.9607L38.2804 56.6855ZM42.7196 50.4712L41.8916 52.6541L42.0666 52.5657L42.9451 50.8132L42.7196 50.4712Z" fill="#141B23"/>
<path d="M56.2251 20.6158L57.6983 23.4943L56.1201 26.6456L54.0988 27.3989" fill="#141B23"/>
<path d="M54.4411 28.2969L53.757 26.4983L55.4207 25.8796L56.6141 23.4968L55.3585 21.0488L57.0922 20.1802L58.787 23.4892L56.824 27.4091L54.4411 28.2969Z" fill="#141B23"/>
<path d="M45.2999 29.1916L25.7804 44.608L26.9935 46.1093L46.513 30.6929L45.2999 29.1916Z" fill="#141B23"/>
<path d="M39.1908 26.854L37.2472 26.9693L37.5306 31.6387L39.4742 31.5234L39.1908 26.854Z" fill="#141B23"/>
<path d="M45.9142 29.938L48.5692 37.4244L44.682 43.0854L43.026 47.259L34.2525 47.5895L29.2846 52.7508C28.161 51.9713 27.1122 51.0914 26.1515 50.1221L24.962 48.9346L26.3925 45.3682L30.5597 42.0631L45.9142 29.938Z" fill="#141B23"/>
<path d="M29.4112 54.0143L28.727 53.5454C27.555 52.7326 26.4607 51.8154 25.4579 50.8053L23.8214 49.1566L25.5823 44.7639L46.3712 28.3384L49.6404 37.5619L45.5238 43.5533L43.6968 48.1919L34.6745 48.5493L29.4112 54.0143ZM26.0876 48.6954L26.834 49.464C27.5619 50.194 28.3413 50.8721 29.1663 51.4932L33.8115 46.6278L42.3635 46.305L43.8212 42.6194L47.4674 37.2852L45.4266 31.5205L27.1994 45.9476L26.0876 48.6954Z" fill="#141B23"/>
<path d="M24.5391 49.7883L13.1378 44.3503L18.7199 29.9732L20.5313 30.6611L15.5945 43.3857L25.3826 48.0589L24.5391 49.7883Z" fill="#141B23"/>
<path d="M19.7742 29.3623L19.4835 31.2623L31.802 33.1041L32.0927 31.2042L19.7742 29.3623Z" fill="#141B23"/>
<path d="M28.889 55.022H14.3663V56.9436H28.889V55.022Z" fill="#141B23"/>
<path d="M18.2019 50.5298H10.5402V52.4514H18.2019V50.5298Z" fill="#141B23"/>
</g>
<defs>
<clipPath id="clip0_38_4354">
<rect width="48.2445" height="42.9814" fill="white" transform="translate(10.5441 13.9615)"/>
</clipPath>
</defs>
</svg>
