<svg width="392" height="280" viewBox="0 0 392 280" fill="none" xmlns="http://www.w3.org/2000/svg">
<path d="M215.276 50.1858L222.152 43.5903L224.66 46.2052L216.574 53.9618L215.276 50.1858Z" fill="#FD89ED"/>
<path d="M30.4678 273.373L40.4121 264.418L43.8172 268.2L32.1222 278.731L30.4678 273.373Z" fill="#2AEF6C"/>
<path d="M346.59 193.624L349.197 184.459L352.682 185.451L349.616 196.229L346.59 193.624Z" fill="#38485B"/>
<path d="M340.71 14.7959L330.388 1.8009L332.552 -1.07755L345.542 10.9634L340.71 14.7959Z" fill="#D0F091"/>
<path d="M46.2136 118.378L58.1948 123.959L56.9164 126.857L42.7874 122.965L46.2136 118.378Z" fill="#88C80C"/>
<path d="M78.785 54.9591C77.9671 55.6136 77.1586 56.4829 76.828 57.3752C76.6125 57.957 76.5938 58.421 76.6494 58.9869C76.7441 59.9505 77.3512 61.3256 78.038 61.7696C80.1377 61.3233 81.4966 60.6718 82.8032 59.3762C84.1098 58.0806 83.1067 58.2605 80.5121 58.8922C77.9175 59.5239 76.879 62.7987 77.1158 64.2665C77.3526 65.7343 78.0231 66.9779 80.1178 67.756C81.8228 68.3894 84.4805 66.9846 84.6358 65.1869C84.8235 63.0132 81.1501 63.3248 79.9512 65.1792C78.2917 67.746 79.1066 70.943 81.8136 72.6931" stroke="#8E54D3" stroke-width="1.05454" stroke-linecap="round"/>
<path d="M358.76 67.742C356.271 68.1991 355.068 70.288 355.922 72.6703C356.534 74.3782 358.123 75.296 359.122 75.5554C360.12 75.8148 363.238 76.0255 363.565 73.5853C363.702 72.5718 363.2 71.678 362.239 71.3277C361.506 71.0603 360.141 71.303 359.393 72.2715C357.788 74.3501 360.03 78.2084 361.64 79.254" stroke="#88C80C" stroke-width="1.05454" stroke-linecap="round"/>
</svg>
