<svg width="74" height="66" viewBox="0 0 74 66" fill="none" xmlns="http://www.w3.org/2000/svg">
<rect x="0.520425" y="1.04234" width="72.1144" height="63.5705" rx="8.35829" fill="#FD89ED"/>
<rect x="0.520425" y="1.04234" width="72.1144" height="63.5705" rx="8.35829" stroke="#141B23" stroke-width="1.04085"/>
<g clip-path="url(#clip0_38_4329)">
<path d="M41.3887 52.2765C38.4331 52.2729 35.5207 51.567 32.8923 50.2171C30.2639 48.8673 27.9948 46.9122 26.2726 44.5135C24.5503 42.1147 23.4243 39.3412 22.9877 36.422C22.551 33.5028 22.8161 30.5217 23.7612 27.725C24.858 24.4841 26.8288 21.6081 29.4567 19.4135C32.0845 17.2188 35.2677 15.7906 38.6559 15.2859C42.0441 14.7813 45.506 15.2197 48.6608 16.553C51.8156 17.8863 54.541 20.0628 56.5372 22.843C58.5333 25.6232 59.7228 28.8994 59.9749 32.3112C60.2269 35.7229 59.5317 39.138 57.9658 42.1807C56.3998 45.2233 54.0238 47.7757 51.0991 49.5569C48.1744 51.3381 44.8143 52.2792 41.3887 52.2765ZM25.212 28.2263C24.1291 31.4237 24.0199 34.87 24.8983 38.1293C25.7766 41.3887 27.6031 44.3147 30.1468 46.5374C32.6904 48.7601 35.8369 50.1796 39.1884 50.6164C42.5399 51.0532 45.9458 50.4877 48.9755 48.9913C52.0051 47.495 54.5224 45.1351 56.209 42.2101C57.8956 39.285 58.6757 35.9262 58.4508 32.5583C58.2258 29.1905 57.0058 25.9649 54.9451 23.2895C52.8844 20.6141 50.0756 18.609 46.8737 17.5278C42.5804 16.0841 37.889 16.3995 33.8282 18.4051C29.7675 20.4106 26.6689 23.9426 25.212 28.2263Z" fill="#141B23"/>
<path d="M52.7759 26.7582L53.4004 35.4305L46.5499 39.9088L38.8974 35.1615L38.2852 26.4922L45.6775 22.393L52.7759 26.7582Z" fill="#141B23"/>
<path d="M46.5618 40.8127L38.1628 35.6163L37.4863 26.058L45.6986 21.5004L53.5099 26.3025L54.1956 35.815L46.5618 40.8127ZM39.632 34.6993L46.5404 38.9787L52.6039 35.005L52.0346 27.2042L45.6588 23.2794L39.0841 26.923L39.632 34.6993Z" fill="#141B23"/>
<path d="M30.6596 39.365L31.7371 44.9193L31.0667 47.9761C26.613 44.5402 23.7969 39.4934 23.6836 34.2875L26.7997 34.8103L30.6596 39.365Z" fill="#141B23"/>
<path d="M31.5538 49.3164L30.6111 48.5736C25.9032 44.9573 23.032 39.6231 22.9188 34.3042L22.9004 33.3871L27.1858 34.1055L31.3579 39.027L32.5028 44.9329L31.5538 49.3164ZM24.4891 35.1968C24.8564 39.3847 27.0695 43.5175 30.5774 46.5866L30.9478 44.9084L29.9376 39.7118L26.3961 35.5147L24.4891 35.1968Z" fill="#141B23"/>
<path d="M52.5255 47.6502C47.6435 33.7727 41.4085 24.5567 32.9023 18.6267L33.7778 17.3735C42.5594 23.4869 48.9749 32.9627 53.9794 47.1458L52.5255 47.6502Z" fill="#141B23"/>
<path d="M35.4341 16.0644L13.5625 23.1782L14.0364 24.6314L35.908 17.5177L35.4341 16.0644Z" fill="#141B23"/>
<path d="M54.9469 44.0989L40.8125 61.7114L42.0067 62.6672L56.1412 45.0547L54.9469 44.0989Z" fill="#141B23"/>
<path d="M38.0388 25.6725L11.0195 41.4399L11.7917 42.7595L38.811 26.9921L38.0388 25.6725Z" fill="#141B23"/>
</g>
<defs>
<clipPath id="clip0_38_4329">
<rect width="49.0105" height="47.5899" fill="white" transform="translate(11.0098 15.0825)"/>
</clipPath>
</defs>
</svg>
