<svg width="74" height="68" viewBox="0 0 74 68" fill="none" xmlns="http://www.w3.org/2000/svg">
<rect x="0.675698" y="0.520425" width="71.8186" height="66.6144" rx="33.3072" fill="#6DE0E7"/>
<rect x="0.675698" y="0.520425" width="71.8186" height="66.6144" rx="33.3072" stroke="#141B23" stroke-width="1.04085"/>
<g clip-path="url(#clip0_38_4342)">
<path d="M38.2021 52.1211L37.4488 51.9408L28.5047 44.6447L15.6598 38.2788C14.6341 37.7801 13.9516 34.8483 14.5563 33.4655C14.7063 33.0688 14.9428 32.7106 15.2487 32.4169C15.5546 32.1232 15.9222 31.9015 16.3246 31.7679L15.0161 30.9368C14.0577 30.378 13.124 28.0686 13.8632 26.3816C14.0284 25.9431 14.2823 25.5433 14.6091 25.2074C14.9359 24.8715 15.3285 24.6067 15.7623 24.4294C16.0291 24.3322 16.3133 24.2921 16.5966 24.3116C16.8799 24.3311 17.1559 24.4098 17.4068 24.5426L18.9559 25.3171L16.1655 23.0997C15.6674 22.7068 15.3435 22.134 15.2637 21.5047C15.1871 20.8767 15.2381 20.2398 15.4138 19.632C15.5894 19.0243 15.886 18.4583 16.2857 17.968C16.8198 17.3279 17.8419 16.5958 19.5642 16.5675H19.5889C20.6959 16.5675 22.7719 17.8266 23.2776 18.2121L23.8541 18.6754C23.4532 18.0186 23.3218 17.2324 23.4872 16.481C23.6527 15.7296 24.1022 15.0713 24.7418 14.6436L25.8028 13.9363C26.3224 13.5899 26.9381 13.4161 27.5622 13.4396C28.1863 13.4631 28.7871 13.6827 29.2793 14.0672L29.8062 14.4774C29.9317 14.5734 30.0499 14.6786 30.1599 14.7922L40.1225 25.4621L40.3559 18.7143C40.3686 18.3095 40.5098 17.9193 40.7591 17.6002L41.1588 17.0874C41.6944 16.3882 42.4431 15.8823 43.2917 15.6463C44.1403 15.4102 45.0427 15.4567 45.8624 15.7789C46.6325 16.0789 47.2994 16.595 47.7832 17.2651C48.2669 17.9351 48.5468 18.7306 48.5892 19.556L49.4663 36.8854L51.6802 38.9402L51.7438 40.1709L42.2445 51.0495L41.7706 51.3289L38.2021 52.1211ZM16.5581 36.7581L29.3783 43.1028L29.5445 43.2089L38.2375 50.2821L41.0951 49.649L49.8482 39.6546L48.0021 37.9393L47.7192 37.3381L46.8421 19.6444C46.8176 19.1596 46.6533 18.6922 46.369 18.2987C46.0847 17.9052 45.6926 17.6025 45.24 17.4269C44.7767 17.244 44.2666 17.2164 43.7863 17.3485C43.306 17.4805 42.8816 17.7649 42.5769 18.159L42.1596 18.6718C42.1387 18.6965 42.1274 18.7279 42.1278 18.7602L41.8201 27.6371L40.2923 28.2136L28.8655 16.0017C28.823 15.9556 28.7768 15.9131 28.7276 15.8744L28.1971 15.4606C27.997 15.3037 27.7524 15.2142 27.4983 15.2046C27.2443 15.1951 26.9937 15.2661 26.7824 15.4075L25.7214 16.1149C25.5816 16.2085 25.4628 16.3303 25.3728 16.4724C25.2827 16.6146 25.2233 16.774 25.1983 16.9404C25.1733 17.1069 25.1834 17.2767 25.2278 17.439C25.2722 17.6013 25.35 17.7526 25.4562 17.8832L25.4951 17.9327L28.8407 22.6647L27.5746 23.8706L22.1777 19.5984C21.6331 19.1669 20.0169 18.35 19.5889 18.3358C19.2245 18.3164 18.8601 18.3758 18.5208 18.5101C18.1814 18.6444 17.875 18.8503 17.6226 19.1139C17.1429 19.7298 16.9255 20.5102 17.0178 21.2854C17.0397 21.4536 17.1275 21.6062 17.2618 21.7098L26.6834 29.2074L25.7391 30.6928L16.5934 26.1129C16.554 26.0927 16.5104 26.0822 16.4661 26.0822C16.4218 26.0822 16.3782 26.0927 16.3388 26.1129C16.2221 26.1518 15.8189 26.3392 15.4829 27.1031C15.1293 27.9448 15.6562 29.1826 15.9285 29.4267H15.9568L24.2431 34.6891L23.4226 36.2488L16.9046 33.4513C16.7986 33.4513 16.4343 33.5716 16.1973 34.1587C15.8967 34.8235 16.2928 36.3443 16.5581 36.7581Z" fill="#141B23"/>
<path d="M46.9244 57.0672L40.6398 51.6704L40.5479 50.4219L50.4044 39.0128L51.6175 38.8926L57.6297 43.5715L57.7818 44.8164L48.194 56.9364L46.9244 57.0672ZM42.4647 50.9241L47.3771 55.1433L55.8296 44.4345L51.1931 40.8059L42.4647 50.9241Z" fill="#141B23"/>
<path d="M36.7411 23.6321L28.1826 43.543L29.8072 44.2413L38.3657 24.3304L36.7411 23.6321Z" fill="#141B23"/>
<path d="M47.7235 32.7751L32.0811 45.6973L33.2073 47.0606L48.8497 34.1384L47.7235 32.7751Z" fill="#141B23"/>
<path d="M41.8256 27.5915L40.0576 27.627L40.2942 39.4121L42.0621 39.3766L41.8256 27.5915Z" fill="#141B23"/>
<path d="M50.3937 45.1236L45.71 50.6484L47.0588 51.7919L51.7425 46.2671L50.3937 45.1236Z" fill="#141B23"/>
<path d="M40.9391 27.6059L41.1725 39.3934L32.6493 46.3853L28.9854 43.8955L37.5475 23.9844L40.9391 27.6059Z" fill="#141B23"/>
<path d="M32.1551 47.1135L28.4911 44.6379L28.1729 43.5557L36.735 23.6374L38.1921 23.3828L41.5837 27.0043L41.8242 27.5843L42.0576 39.3718L41.7358 40.0792L33.2125 47.0675L32.1551 47.1135ZM30.0862 43.5769L32.6007 45.2674L40.2822 38.9828L40.063 27.9627L37.8278 25.5755L30.0862 43.5769Z" fill="#141B23"/>
</g>
<defs>
<clipPath id="clip0_38_4342">
<rect width="44.1759" height="43.6312" fill="white" transform="translate(13.5967 13.4375)"/>
</clipPath>
</defs>
</svg>
