<svg width="22" height="25" viewBox="0 0 22 25" fill="none" xmlns="http://www.w3.org/2000/svg">
<path d="M7.84104 22.9639C12.3899 19.9639 16.4583 16.8152 19.7563 13.4282L19.9364 9.14429L17.6354 6.63256L16.1584 5.7939C16.1584 5.7939 12.7896 8.30959 11.3507 9.6206C10.7856 7.8988 9.47989 6.22044 9.47989 6.22044L8.00294 5.38177L6.15473 7.28996L4.90377 11.0304C5.12595 13.9441 6.36419 22.1246 6.36419 22.1246L7.84104 22.9639Z" fill="#28CE61"/>
<g opacity="0.46">
<path d="M7.84104 22.962C12.3899 19.9619 16.4583 16.8132 19.7563 13.4262L19.9364 9.14233L17.6354 6.63061L16.1584 5.79194C16.1584 5.79194 12.7896 8.30763 11.3507 9.61865C10.7856 7.89684 9.47989 6.21849 9.47989 6.21849L8.00294 5.37982L6.15473 7.288L4.90377 11.0285C5.12595 13.9422 6.36419 22.1226 6.36419 22.1226L7.84104 22.962Z" fill="black"/>
</g>
<path d="M6.3634 22.123C10.9123 19.1227 14.9807 15.974 18.2787 12.5873L18.4592 8.30344L16.1582 5.79172C16.1582 5.79172 12.5903 6.30333 9.87297 8.78039C9.30788 7.05858 8.00216 5.38021 8.00216 5.38021L4.67629 6.44964L3.42534 10.1901C3.66314 13.2985 4.92637 17.6092 6.3634 22.123Z" fill="#28CE61"/>
<g opacity="0.01">
<path d="M18.2772 12.5887C14.9786 15.9751 10.9107 19.1235 6.36238 22.1243C4.92455 17.611 3.66236 13.2998 3.42401 10.1918L4.14259 8.04136L8.54445 13.935L14.9573 9.86674L16.7558 6.44783L18.4578 8.30419L18.2772 12.5887Z" fill="black"/>
</g>
<path d="M6.92023 8.3131L5.48044 9.30763L4.63964 9.88846L4.54753 13.017L5.49247 10.1827L6.92023 8.3131Z" fill="white"/>
<path d="M16.5273 6.19603L16.1574 5.79227C13.9713 5.91861 11.1716 7.57297 9.98832 8.64435L9.05538 10.1686L12.2571 7.72099L15.8788 6.4286L18.4593 8.30484L16.5273 6.19603Z" fill="white"/>
<path d="M7.137 5.24775L8.22084 6.90999L6.36764 6.13457L5.58994 7.03242L3.82419 10.3456L4.49247 18.7498C3.49657 15.8044 2.78134 12.5229 2.56048 10.0572L3.81164 6.31845L7.137 5.24775Z" fill="white"/>
<path d="M13.4584 1.98944L13.0944 4.6383L11.0123 6.38353L12.7526 3.61901L13.4584 1.98944Z" fill="#F8CB00"/>
<path d="M12.965 14.4838L10.9606 16.2534L10.6599 18.9536L11.9985 15.9739L12.965 14.4838Z" fill="#F8CB00"/>
</svg>
