<svg width="20" height="21" viewBox="0 0 20 21" fill="none" xmlns="http://www.w3.org/2000/svg">
<g clip-path="url(#clip0_38_7144)">
<path d="M10 1.88476C12.6719 1.88476 12.9883 1.89648 14.0391 1.94335C15.0156 1.98632 15.543 2.15039 15.8945 2.28711C16.3594 2.46679 16.6953 2.68554 17.043 3.0332C17.3945 3.38476 17.6094 3.71679 17.7891 4.18164C17.9258 4.5332 18.0898 5.06445 18.1328 6.0371C18.1797 7.09179 18.1914 7.40821 18.1914 10.0762C18.1914 12.7481 18.1797 13.0645 18.1328 14.1153C18.0898 15.0918 17.9258 15.6192 17.7891 15.9707C17.6094 16.4356 17.3906 16.7715 17.043 17.1192C16.6914 17.4707 16.3594 17.6856 15.8945 17.8653C15.543 18.002 15.0117 18.166 14.0391 18.209C12.9844 18.2559 12.668 18.2676 10 18.2676C7.32813 18.2676 7.01172 18.2559 5.96094 18.209C4.98438 18.166 4.45703 18.002 4.10547 17.8653C3.64063 17.6856 3.30469 17.4668 2.95703 17.1192C2.60547 16.7676 2.39063 16.4356 2.21094 15.9707C2.07422 15.6192 1.91016 15.0879 1.86719 14.1153C1.82031 13.0606 1.80859 12.7442 1.80859 10.0762C1.80859 7.40429 1.82031 7.08789 1.86719 6.0371C1.91016 5.06054 2.07422 4.5332 2.21094 4.18164C2.39063 3.71679 2.60938 3.38086 2.95703 3.0332C3.30859 2.68164 3.64063 2.46679 4.10547 2.28711C4.45703 2.15039 4.98828 1.98632 5.96094 1.94335C7.01172 1.89648 7.32813 1.88476 10 1.88476ZM10 0.0839844C7.28516 0.0839844 6.94531 0.0957031 5.87891 0.142578C4.81641 0.189453 4.08594 0.361328 3.45313 0.607422C2.79297 0.865234 2.23438 1.20507 1.67969 1.76367C1.12109 2.31836 0.78125 2.87695 0.523438 3.5332C0.277344 4.16992 0.105469 4.89648 0.0585938 5.95898C0.0117188 7.02929 0 7.36914 0 10.084C0 12.7988 0.0117188 13.1387 0.0585938 14.2051C0.105469 15.2676 0.277344 15.9981 0.523438 16.6309C0.78125 17.291 1.12109 17.8496 1.67969 18.4043C2.23438 18.959 2.79297 19.3028 3.44922 19.5567C4.08594 19.8028 4.8125 19.9746 5.875 20.0215C6.94141 20.0684 7.28125 20.0801 9.99609 20.0801C12.7109 20.0801 13.0508 20.0684 14.1172 20.0215C15.1797 19.9746 15.9102 19.8028 16.543 19.5567C17.1992 19.3028 17.7578 18.959 18.3125 18.4043C18.8672 17.8496 19.2109 17.291 19.4648 16.6348C19.7109 15.9981 19.8828 15.2715 19.9297 14.209C19.9766 13.1426 19.9883 12.8028 19.9883 10.0879C19.9883 7.37304 19.9766 7.0332 19.9297 5.96679C19.8828 4.90429 19.7109 4.17382 19.4648 3.54101C19.2188 2.87695 18.8789 2.31836 18.3203 1.76367C17.7656 1.20898 17.207 0.865234 16.5508 0.611328C15.9141 0.365234 15.1875 0.193359 14.125 0.146484C13.0547 0.0957032 12.7148 0.0839844 10 0.0839844Z" fill="white"/>
<path d="M10 4.94727C7.16406 4.94727 4.86328 7.24805 4.86328 10.084C4.86328 12.9199 7.16406 15.2207 10 15.2207C12.8359 15.2207 15.1367 12.9199 15.1367 10.084C15.1367 7.24805 12.8359 4.94727 10 4.94727ZM10 13.416C8.16016 13.416 6.66797 11.9238 6.66797 10.084C6.66797 8.24415 8.16016 6.75196 10 6.75196C11.8398 6.75196 13.332 8.24415 13.332 10.084C13.332 11.9238 11.8398 13.416 10 13.416Z" fill="white"/>
<path d="M16.5391 4.74414C16.5391 5.4082 16 5.94336 15.3398 5.94336C14.6758 5.94336 14.1406 5.40429 14.1406 4.74414C14.1406 4.08007 14.6797 3.54492 15.3398 3.54492C16 3.54492 16.5391 4.08398 16.5391 4.74414Z" fill="white"/>
</g>
<defs>
<clipPath id="clip0_38_7144">
<rect width="20" height="20" fill="white" transform="translate(0 0.0839844)"/>
</clipPath>
</defs>
</svg>
