<svg width="1440" height="1439" viewBox="0 0 1440 1439" fill="none" xmlns="http://www.w3.org/2000/svg">
<g opacity="0.03">
<path fill-rule="evenodd" clip-rule="evenodd" d="M1203.82 57.0826L1295.64 149.117L1477.03 -32.6877L1450.14 -59.6389C1449.83 -59.6308 1449.52 -59.6255 1449.21 -59.6255H1298.8C1281.35 -59.6255 1267.19 -73.8112 1267.19 -91.3093C1267.19 -108.807 1281.35 -122.992 1298.8 -122.992H1386.94L1295.64 -214.493L1114.26 -32.6877L1140.63 -6.26218C1141.02 -6.27557 1141.41 -6.28363 1141.8 -6.28363H1292.21C1309.67 -6.28363 1323.82 7.90207 1323.82 25.4001C1323.82 42.8983 1309.67 57.0826 1292.21 57.0826H1203.82ZM1039.75 -47.6244C1031.52 -39.3755 1031.52 -26.0012 1039.75 -17.7523L1280.74 223.795C1288.97 232.043 1302.32 232.043 1310.55 223.795L1551.54 -17.7523C1559.77 -26.0012 1559.77 -39.3755 1551.54 -47.6244L1310.55 -289.171C1302.32 -297.42 1288.97 -297.42 1280.74 -289.171L1039.75 -47.6244Z" fill="#271437"/>
<path fill-rule="evenodd" clip-rule="evenodd" d="M909.35 345.223L1001.17 437.257L1182.56 255.453L1155.67 228.502C1155.36 228.51 1155.05 228.515 1154.74 228.515H1004.33C986.873 228.515 972.72 214.329 972.72 196.831C972.72 179.333 986.873 165.149 1004.33 165.149H1092.46L1001.17 73.6475L819.787 255.453L846.152 281.878C846.543 281.865 846.936 281.857 847.331 281.857H997.735C1015.19 281.857 1029.35 296.043 1029.35 313.541C1029.35 331.039 1015.19 345.223 997.735 345.223H909.35ZM745.282 240.516C737.052 248.765 737.052 262.139 745.282 270.388L986.271 511.935C994.501 520.184 1007.84 520.184 1016.07 511.935L1257.06 270.388C1265.29 262.139 1265.29 248.765 1257.06 240.516L1016.07 -1.03027C1007.84 -9.27897 994.501 -9.27897 986.271 -1.03027L745.282 240.516Z" fill="#271437"/>
<path fill-rule="evenodd" clip-rule="evenodd" d="M622.319 57.0826L714.141 149.117L895.527 -32.6877L868.638 -59.6389C868.327 -59.6308 868.016 -59.6255 867.704 -59.6255H717.3C699.842 -59.6255 685.689 -73.8112 685.689 -91.3093C685.689 -108.807 699.842 -122.992 717.3 -122.992H805.431L714.141 -214.493L532.756 -32.6877L559.121 -6.26218C559.512 -6.27557 559.905 -6.28363 560.299 -6.28363H710.703C728.161 -6.28363 742.314 7.90207 742.314 25.4001C742.314 42.8983 728.161 57.0826 710.703 57.0826H622.319ZM458.25 -47.6244C450.021 -39.3755 450.021 -26.0012 458.25 -17.7523L699.24 223.795C707.47 232.043 720.813 232.043 729.043 223.795L970.033 -17.7523C978.262 -26.0012 978.262 -39.3755 970.033 -47.6244L729.043 -289.171C720.813 -297.42 707.47 -297.42 699.24 -289.171L458.25 -47.6244Z" fill="#271437"/>
<path fill-rule="evenodd" clip-rule="evenodd" d="M1203.82 636.553L1295.64 728.587L1477.03 546.783L1450.14 519.832C1449.83 519.84 1449.52 519.845 1449.21 519.845H1298.8C1281.35 519.845 1267.19 505.66 1267.19 488.161C1267.19 470.663 1281.35 456.479 1298.8 456.479H1386.94L1295.64 364.978L1114.26 546.783L1140.63 573.209C1141.02 573.195 1141.41 573.187 1141.8 573.187H1292.21C1309.67 573.187 1323.82 587.373 1323.82 604.871C1323.82 622.369 1309.67 636.553 1292.21 636.553H1203.82ZM1039.75 531.846C1031.52 540.095 1031.52 553.47 1039.75 561.718L1280.74 803.265C1288.97 811.514 1302.32 811.514 1310.55 803.265L1551.54 561.718C1559.77 553.47 1559.77 540.095 1551.54 531.846L1310.55 290.3C1302.32 282.051 1288.97 282.051 1280.74 290.3L1039.75 531.846Z" fill="#271437"/>
<path fill-rule="evenodd" clip-rule="evenodd" d="M909.35 928.95L1001.17 1020.98L1182.56 839.18L1155.67 812.228C1155.36 812.236 1155.05 812.242 1154.74 812.242H1004.33C986.873 812.242 972.72 798.056 972.72 780.558C972.72 763.06 986.873 748.875 1004.33 748.875H1092.46L1001.17 657.374L819.787 839.18L846.152 865.605C846.543 865.592 846.936 865.584 847.331 865.584H997.735C1015.19 865.584 1029.35 879.769 1029.35 897.267C1029.35 914.765 1015.19 928.95 997.735 928.95H909.35ZM745.282 824.243C737.052 832.492 737.052 845.866 745.282 854.115L986.271 1095.66C994.501 1103.91 1007.84 1103.91 1016.07 1095.66L1257.06 854.115C1265.29 845.866 1265.29 832.492 1257.06 824.243L1016.07 582.696C1007.84 574.448 994.501 574.448 986.271 582.696L745.282 824.243Z" fill="#271437"/>
<path fill-rule="evenodd" clip-rule="evenodd" d="M909.35 1510.55L1001.17 1602.58L1182.56 1420.78L1155.67 1393.83C1155.36 1393.84 1155.05 1393.84 1154.74 1393.84H1004.33C986.873 1393.84 972.72 1379.66 972.72 1362.16C972.72 1344.66 986.873 1330.48 1004.33 1330.48H1092.46L1001.17 1238.97L819.787 1420.78L846.152 1447.2C846.543 1447.19 846.936 1447.18 847.331 1447.18H997.735C1015.19 1447.18 1029.35 1461.37 1029.35 1478.87C1029.35 1496.37 1015.19 1510.55 997.735 1510.55H909.35ZM745.282 1405.84C737.052 1414.09 737.052 1427.47 745.282 1435.71L986.271 1677.26C994.501 1685.51 1007.84 1685.51 1016.07 1677.26L1257.06 1435.71C1265.29 1427.47 1265.29 1414.09 1257.06 1405.84L1016.07 1164.3C1007.84 1156.05 994.501 1156.05 986.271 1164.3L745.282 1405.84Z" fill="#271437"/>
<path fill-rule="evenodd" clip-rule="evenodd" d="M1492.98 345.223L1584.8 437.257L1766.19 255.453L1739.3 228.502C1738.99 228.51 1738.68 228.515 1738.37 228.515H1587.96C1570.51 228.515 1556.35 214.329 1556.35 196.831C1556.35 179.333 1570.51 165.149 1587.96 165.149H1676.1L1584.8 73.6475L1403.42 255.453L1429.79 281.878C1430.18 281.865 1430.57 281.857 1430.96 281.857H1581.37C1598.83 281.857 1612.98 296.043 1612.98 313.541C1612.98 331.039 1598.83 345.223 1581.37 345.223H1492.98ZM1328.91 240.516C1320.68 248.765 1320.68 262.139 1328.91 270.388L1569.9 511.935C1578.13 520.184 1591.48 520.184 1599.71 511.935L1840.7 270.388C1848.93 262.139 1848.93 248.765 1840.7 240.516L1599.71 -1.03027C1591.48 -9.27897 1578.13 -9.27897 1569.9 -1.03027L1328.91 240.516Z" fill="#271437"/>
<path fill-rule="evenodd" clip-rule="evenodd" d="M622.319 636.553L714.141 728.587L895.527 546.783L868.638 519.832C868.327 519.84 868.016 519.845 867.704 519.845H717.3C699.842 519.845 685.689 505.66 685.689 488.161C685.689 470.663 699.842 456.479 717.3 456.479H805.431L714.141 364.978L532.756 546.783L559.121 573.209C559.512 573.195 559.905 573.187 560.299 573.187H710.703C728.161 573.187 742.314 587.373 742.314 604.871C742.314 622.369 728.161 636.553 710.703 636.553H622.319ZM458.25 531.846C450.021 540.095 450.021 553.47 458.25 561.718L699.24 803.265C707.47 811.514 720.813 811.514 729.043 803.265L970.033 561.718C978.262 553.47 978.262 540.095 970.033 531.846L729.043 290.3C720.813 282.051 707.47 282.051 699.24 290.3L458.25 531.846Z" fill="#271437"/>
<path fill-rule="evenodd" clip-rule="evenodd" d="M1492.98 928.95L1584.8 1020.98L1766.19 839.18L1739.3 812.228C1738.99 812.236 1738.68 812.242 1738.37 812.242H1587.96C1570.51 812.242 1556.35 798.056 1556.35 780.558C1556.35 763.06 1570.51 748.875 1587.96 748.875H1676.1L1584.8 657.374L1403.42 839.18L1429.79 865.605C1430.18 865.592 1430.57 865.584 1430.96 865.584H1581.37C1598.83 865.584 1612.98 879.769 1612.98 897.267C1612.98 914.765 1598.83 928.95 1581.37 928.95H1492.98ZM1328.91 824.243C1320.68 832.492 1320.68 845.866 1328.91 854.115L1569.9 1095.66C1578.13 1103.91 1591.48 1103.91 1599.71 1095.66L1840.7 854.115C1848.93 845.866 1848.93 832.492 1840.7 824.243L1599.71 582.696C1591.48 574.448 1578.13 574.448 1569.9 582.696L1328.91 824.243Z" fill="#271437"/>
<path fill-rule="evenodd" clip-rule="evenodd" d="M1492.98 1510.55L1584.8 1602.58L1766.19 1420.78L1739.3 1393.83C1738.99 1393.84 1738.68 1393.84 1738.37 1393.84H1587.96C1570.51 1393.84 1556.35 1379.66 1556.35 1362.16C1556.35 1344.66 1570.51 1330.48 1587.96 1330.48H1676.1L1584.8 1238.97L1403.42 1420.78L1429.79 1447.2C1430.18 1447.19 1430.57 1447.18 1430.96 1447.18H1581.37C1598.83 1447.18 1612.98 1461.37 1612.98 1478.87C1612.98 1496.37 1598.83 1510.55 1581.37 1510.55H1492.98ZM1328.91 1405.84C1320.68 1414.09 1320.68 1427.47 1328.91 1435.71L1569.9 1677.26C1578.13 1685.51 1591.48 1685.51 1599.71 1677.26L1840.7 1435.71C1848.93 1427.47 1848.93 1414.09 1840.7 1405.84L1599.71 1164.3C1591.48 1156.05 1578.13 1156.05 1569.9 1164.3L1328.91 1405.84Z" fill="#271437"/>
<path fill-rule="evenodd" clip-rule="evenodd" d="M1203.82 1218.15L1295.64 1310.19L1477.03 1128.38L1450.14 1101.43C1449.83 1101.44 1449.52 1101.44 1449.21 1101.44H1298.8C1281.35 1101.44 1267.19 1087.26 1267.19 1069.76C1267.19 1052.26 1281.35 1038.08 1298.8 1038.08H1386.94L1295.64 946.577L1114.26 1128.38L1140.63 1154.81C1141.02 1154.79 1141.41 1154.79 1141.8 1154.79H1292.21C1309.67 1154.79 1323.82 1168.97 1323.82 1186.47C1323.82 1203.97 1309.67 1218.15 1292.21 1218.15H1203.82ZM1039.75 1113.45C1031.52 1121.69 1031.52 1135.07 1039.75 1143.32L1280.74 1384.86C1288.97 1393.11 1302.32 1393.11 1310.55 1384.86L1551.54 1143.32C1559.77 1135.07 1559.77 1121.69 1551.54 1113.45L1310.55 871.899C1302.32 863.651 1288.97 863.651 1280.74 871.899L1039.75 1113.45Z" fill="#271437"/>
<path fill-rule="evenodd" clip-rule="evenodd" d="M-253.658 345.223L-161.836 437.257L19.5503 255.453L-7.33875 228.502C-7.64914 228.51 -7.96088 228.515 -8.27261 228.515H-158.677C-176.135 228.515 -190.288 214.329 -190.288 196.831C-190.288 179.333 -176.135 165.149 -158.677 165.149H-70.5454L-161.836 73.6475L-343.221 255.453L-316.855 281.878C-316.464 281.865 -316.072 281.857 -315.677 281.857H-165.273C-147.815 281.857 -133.662 296.043 -133.662 313.541C-133.662 331.039 -147.815 345.223 -165.273 345.223H-253.658ZM-417.726 240.516C-425.956 248.765 -425.956 262.139 -417.726 270.388L-176.737 511.935C-168.507 520.184 -155.163 520.184 -146.934 511.935L94.056 270.388C102.286 262.139 102.286 248.765 94.056 240.516L-146.934 -1.03027C-155.163 -9.27897 -168.507 -9.27897 -176.737 -1.03027L-417.726 240.516Z" fill="#271437"/>
<path fill-rule="evenodd" clip-rule="evenodd" d="M40.8151 57.0826L132.637 149.117L314.023 -32.6877L287.134 -59.6389C286.824 -59.6308 286.512 -59.6255 286.2 -59.6255H135.796C118.338 -59.6255 104.185 -73.8112 104.185 -91.3093C104.185 -108.807 118.338 -122.992 135.796 -122.992H223.927L132.637 -214.493L-48.7482 -32.6877L-22.3827 -6.26218C-21.9917 -6.27557 -21.599 -6.28363 -21.2046 -6.28363H129.2C146.657 -6.28363 160.81 7.90207 160.81 25.4001C160.81 42.8983 146.657 57.0826 129.2 57.0826H40.8151ZM-123.254 -47.6244C-131.483 -39.3755 -131.483 -26.0012 -123.254 -17.7523L117.736 223.795C125.966 232.043 139.309 232.043 147.539 223.795L388.529 -17.7523C396.758 -26.0012 396.758 -39.3755 388.529 -47.6244L147.539 -289.171C139.309 -297.42 125.966 -297.42 117.736 -289.171L-123.254 -47.6244Z" fill="#271437"/>
<path fill-rule="evenodd" clip-rule="evenodd" d="M40.8151 1221.62L132.637 1313.65L314.023 1131.85L287.134 1104.9C286.824 1104.91 286.512 1104.91 286.2 1104.91H135.796C118.338 1104.91 104.185 1090.73 104.185 1073.23C104.185 1055.73 118.338 1041.55 135.796 1041.55H223.927L132.637 950.044L-48.7482 1131.85L-22.3827 1158.27C-21.9917 1158.26 -21.599 1158.25 -21.2046 1158.25H129.2C146.657 1158.25 160.81 1172.44 160.81 1189.94C160.81 1207.44 146.657 1221.62 129.2 1221.62H40.8151ZM-123.254 1116.91C-131.483 1125.16 -131.483 1138.54 -123.254 1146.78L117.736 1388.33C125.966 1396.58 139.309 1396.58 147.539 1388.33L388.529 1146.78C396.758 1138.54 396.758 1125.16 388.529 1116.91L147.539 875.366C139.309 867.118 125.966 867.118 117.736 875.366L-123.254 1116.91Z" fill="#271437"/>
<path fill-rule="evenodd" clip-rule="evenodd" d="M622.319 1223.47L714.141 1315.5L895.527 1133.7L868.638 1106.75C868.327 1106.75 868.016 1106.76 867.704 1106.76H717.3C699.842 1106.76 685.689 1092.57 685.689 1075.08C685.689 1057.58 699.842 1043.39 717.3 1043.39H805.431L714.141 951.892L532.756 1133.7L559.121 1160.12C559.512 1160.11 559.905 1160.1 560.299 1160.1H710.703C728.161 1160.1 742.314 1174.29 742.314 1191.78C742.314 1209.28 728.161 1223.47 710.703 1223.47H622.319ZM458.25 1118.76C450.021 1127.01 450.021 1140.38 458.25 1148.63L699.24 1390.18C707.47 1398.43 720.813 1398.43 729.043 1390.18L970.033 1148.63C978.262 1140.38 978.262 1127.01 970.033 1118.76L729.043 877.214C720.813 868.965 707.47 868.965 699.24 877.214L458.25 1118.76Z" fill="#271437"/>
<path fill-rule="evenodd" clip-rule="evenodd" d="M-253.658 928.95L-161.836 1020.98L19.5503 839.18L-7.33875 812.228C-7.64914 812.236 -7.96088 812.242 -8.27261 812.242H-158.677C-176.135 812.242 -190.288 798.056 -190.288 780.558C-190.288 763.06 -176.135 748.875 -158.677 748.875H-70.5454L-161.836 657.374L-343.221 839.18L-316.855 865.605C-316.464 865.592 -316.072 865.584 -315.677 865.584H-165.273C-147.815 865.584 -133.662 879.769 -133.662 897.267C-133.662 914.765 -147.815 928.95 -165.273 928.95H-253.658ZM-417.726 824.243C-425.956 832.492 -425.956 845.866 -417.726 854.115L-176.737 1095.66C-168.507 1103.91 -155.163 1103.91 -146.934 1095.66L94.056 854.115C102.286 845.866 102.286 832.492 94.056 824.243L-146.934 582.696C-155.163 574.448 -168.507 574.448 -176.737 582.696L-417.726 824.243Z" fill="#271437"/>
<path fill-rule="evenodd" clip-rule="evenodd" d="M329.971 928.95L421.793 1020.98L603.179 839.18L576.29 812.228C575.98 812.236 575.668 812.242 575.356 812.242H424.952C407.494 812.242 393.341 798.056 393.341 780.558C393.341 763.06 407.494 748.875 424.952 748.875H513.084L421.793 657.374L240.408 839.18L266.774 865.605C267.165 865.592 267.557 865.584 267.952 865.584H418.356C435.814 865.584 449.967 879.769 449.967 897.267C449.967 914.765 435.814 928.95 418.356 928.95H329.971ZM165.903 824.243C157.673 832.492 157.673 845.866 165.903 854.115L406.892 1095.66C415.122 1103.91 428.465 1103.91 436.695 1095.66L677.685 854.115C685.915 845.866 685.915 832.492 677.685 824.243L436.695 582.696C428.465 574.448 415.122 574.448 406.892 582.696L165.903 824.243Z" fill="#271437"/>
<path fill-rule="evenodd" clip-rule="evenodd" d="M329.971 345.223L421.793 437.257L603.179 255.453L576.29 228.502C575.98 228.51 575.668 228.515 575.356 228.515H424.952C407.494 228.515 393.341 214.329 393.341 196.831C393.341 179.333 407.494 165.149 424.952 165.149H513.084L421.793 73.6475L240.408 255.453L266.774 281.878C267.165 281.865 267.557 281.857 267.952 281.857H418.356C435.814 281.857 449.967 296.043 449.967 313.541C449.967 331.039 435.814 345.223 418.356 345.223H329.971ZM165.903 240.516C157.673 248.765 157.673 262.139 165.903 270.388L406.892 511.935C415.122 520.184 428.465 520.184 436.695 511.935L677.685 270.388C685.915 262.139 685.915 248.765 677.685 240.516L436.695 -1.03027C428.465 -9.27897 415.122 -9.27897 406.892 -1.03027L165.903 240.516Z" fill="#271437"/>
<path fill-rule="evenodd" clip-rule="evenodd" d="M40.8151 638.866L132.637 730.9L314.023 549.096L287.134 522.144C286.824 522.152 286.512 522.158 286.2 522.158H135.796C118.338 522.158 104.185 507.972 104.185 490.474C104.185 472.976 118.338 458.792 135.796 458.792H223.927L132.637 367.29L-48.7482 549.096L-22.3827 575.521C-21.9917 575.508 -21.599 575.5 -21.2046 575.5H129.2C146.657 575.5 160.81 589.685 160.81 607.183C160.81 624.681 146.657 638.866 129.2 638.866H40.8151ZM-123.254 534.159C-131.483 542.408 -131.483 555.782 -123.254 564.031L117.736 805.578C125.966 813.827 139.309 813.827 147.539 805.578L388.529 564.031C396.758 555.782 396.758 542.408 388.529 534.159L147.539 292.612C139.309 284.364 125.966 284.364 117.736 292.612L-123.254 534.159Z" fill="#271437"/>
<path fill-rule="evenodd" clip-rule="evenodd" d="M-253.658 1510.55L-161.836 1602.58L19.5503 1420.78L-7.33875 1393.83C-7.64914 1393.84 -7.96088 1393.84 -8.27261 1393.84H-158.677C-176.135 1393.84 -190.288 1379.66 -190.288 1362.16C-190.288 1344.66 -176.135 1330.48 -158.677 1330.48H-70.5454L-161.836 1238.97L-343.221 1420.78L-316.855 1447.2C-316.464 1447.19 -316.072 1447.18 -315.677 1447.18H-165.273C-147.815 1447.18 -133.662 1461.37 -133.662 1478.87C-133.662 1496.37 -147.815 1510.55 -165.273 1510.55H-253.658ZM-417.726 1405.84C-425.956 1414.09 -425.956 1427.47 -417.726 1435.71L-176.737 1677.26C-168.507 1685.51 -155.163 1685.51 -146.934 1677.26L94.056 1435.71C102.286 1427.47 102.286 1414.09 94.056 1405.84L-146.934 1164.3C-155.163 1156.05 -168.507 1156.05 -176.737 1164.3L-417.726 1405.84Z" fill="#271437"/>
<path fill-rule="evenodd" clip-rule="evenodd" d="M329.971 1510.55L421.793 1602.58L603.179 1420.78L576.29 1393.83C575.98 1393.84 575.668 1393.84 575.356 1393.84H424.952C407.494 1393.84 393.341 1379.66 393.341 1362.16C393.341 1344.66 407.494 1330.48 424.952 1330.48H513.084L421.793 1238.97L240.408 1420.78L266.774 1447.2C267.165 1447.19 267.557 1447.18 267.952 1447.18H418.356C435.814 1447.18 449.967 1461.37 449.967 1478.87C449.967 1496.37 435.814 1510.55 418.356 1510.55H329.971ZM165.903 1405.84C157.673 1414.09 157.673 1427.47 165.903 1435.71L406.892 1677.26C415.122 1685.51 428.465 1685.51 436.695 1677.26L677.685 1435.71C685.915 1427.47 685.915 1414.09 677.685 1405.84L436.695 1164.3C428.465 1156.05 415.122 1156.05 406.892 1164.3L165.903 1405.84Z" fill="#271437"/>
</g>
</svg>
