<svg width="313" height="139" viewBox="0 0 313 139" fill="none" xmlns="http://www.w3.org/2000/svg">
<path d="M2.84189 20.6134L10.5396 20.2001L10.6161 21.6256L4.48648 21.9547L4.68716 25.6927L10.5 25.3806L10.5774 26.8219L4.76454 27.134L4.96692 30.9037L11.0966 30.5746L11.1731 32.0001L3.4754 32.4134L2.84189 20.6134ZM12.4483 23.3698L13.9055 23.2916L13.9948 24.9547L13.7495 24.8249C13.9318 24.275 14.2473 23.8398 14.696 23.5192C15.1548 23.1875 15.7009 23.0046 16.3345 22.9706C16.9363 22.9383 17.4875 23.0464 17.988 23.2948C18.4884 23.5433 18.8893 23.9083 19.1905 24.3898C19.5016 24.8603 19.6734 25.3964 19.7057 25.9983L20.0025 31.5261L18.5136 31.606L18.2423 26.5534C18.2174 26.0888 18.1117 25.6973 17.9251 25.3791C17.7381 25.0502 17.4813 24.8046 17.1549 24.6421C16.839 24.479 16.4805 24.4082 16.0792 24.4298C15.4668 24.4627 14.976 24.6902 14.6068 25.1125C14.2482 25.5341 14.0874 26.0881 14.1242 26.7745L14.3955 31.8271L12.9066 31.907L12.4483 23.3698ZM25.5686 31.3225C24.7345 31.3673 24.0776 31.1643 23.598 30.7135C23.1185 30.2627 22.8554 29.6044 22.809 28.7386L22.5675 24.2403L21.0311 24.3228L20.9554 22.9131L21.2722 22.8961C21.6418 22.8763 21.9315 22.7495 22.1413 22.5159C22.3506 22.2717 22.4447 21.9542 22.4237 21.5635L22.3761 20.6765L23.865 20.5966L23.9806 22.7507L25.8971 22.6478L25.9728 24.0575L24.0563 24.1604L24.2953 28.6111C24.3202 29.0757 24.4501 29.4235 24.6849 29.6545C24.9196 29.8854 25.2905 29.9873 25.7973 29.9601C26.0085 29.9487 26.203 29.9224 26.3808 29.8811L26.4514 31.1957C26.2113 31.2616 25.9171 31.3038 25.5686 31.3225ZM27.9005 22.5403L29.3577 22.462L29.4419 24.0301L29.2716 23.8168C29.4356 23.3209 29.7173 22.9457 30.1166 22.6913C30.5154 22.4263 31.0157 22.2777 31.6176 22.2454L32.1403 22.2173L32.2159 23.627L31.4715 23.667C30.8591 23.6998 30.3783 23.9163 30.0291 24.3162C29.6899 24.7051 29.5385 25.2374 29.5748 25.9132L29.8477 30.9975L28.3589 31.0774L27.9005 22.5403ZM36.5541 29.9862L36.6229 31.2691L32.4876 22.294L34.0874 22.2081L37.3137 29.3418L36.8385 29.3673L39.2667 21.93L40.8981 21.8424L36.8065 33.8008L35.1751 33.8884L36.5541 29.9862ZM48.034 18.1871L49.8713 18.0885L54.7338 29.6614L53.0707 29.7507L51.9566 27.0466L46.9198 27.317L46.1016 30.1249L44.4385 30.2142L48.034 18.1871ZM51.3723 25.6325L48.7921 19.2901L49.2356 19.2663L47.3334 25.8493L51.3723 25.6325ZM55.5723 21.0546L57.0294 20.9764L57.123 22.7187L56.9035 22.4763C57.0863 21.937 57.3968 21.5073 57.835 21.1873C58.2732 20.8673 58.7932 20.6911 59.3951 20.6588C60.0709 20.6225 60.6827 20.775 61.2305 21.1162C61.7783 21.4574 62.1687 21.9236 62.4016 22.5147L61.9906 22.5527C62.1778 21.8966 62.5207 21.3805 63.0194 21.0043C63.5176 20.6175 64.0992 20.4062 64.7645 20.3705C65.3558 20.3388 65.8967 20.4527 66.3872 20.7123C66.8876 20.9607 67.2935 21.3202 67.6046 21.7906C67.9158 22.261 68.0876 22.7972 68.1199 23.3991L68.4166 28.9268L66.9278 29.0068L66.6565 23.9542C66.6321 23.5001 66.5264 23.1087 66.3393 22.7798C66.1522 22.451 65.906 22.2048 65.6007 22.0412C65.2954 21.8775 64.9527 21.8059 64.5726 21.8263C63.9918 21.8575 63.5224 22.0892 63.1644 22.5214C62.8164 22.9425 62.6605 23.491 62.6968 24.1667L62.9681 29.2194L61.4792 29.2993L61.2079 24.2467C61.1836 23.7926 61.0778 23.4012 60.8907 23.0724C60.7036 22.7435 60.4574 22.4973 60.1522 22.3337C59.8574 22.1695 59.5147 22.0979 59.124 22.1188C58.5432 22.15 58.0738 22.3817 57.7158 22.8139C57.3678 23.235 57.2119 23.7835 57.2482 24.4593L57.5195 29.5119L56.0306 29.5918L55.5723 21.0546ZM74.5579 28.7878C73.7554 28.8308 73.006 28.6805 72.3098 28.3366C71.6236 27.9816 71.0614 27.4717 70.6233 26.8069C70.1958 26.1415 69.9596 25.3918 69.9149 24.5576C69.8695 23.7128 70.019 22.9476 70.3635 22.262C70.7179 21.5652 71.2225 21.0034 71.8773 20.5764C72.5321 20.1494 73.2713 19.9138 74.095 19.8696C74.908 19.8259 75.6577 19.9816 76.3439 20.3366C77.0401 20.6804 77.5967 21.1853 78.0137 21.8513C78.4406 22.5061 78.6765 23.2506 78.7213 24.0848C78.7672 24.9401 78.6077 25.7164 78.2427 26.4137C77.8883 27.1105 77.3837 27.6724 76.7289 28.0994C76.084 28.5152 75.3604 28.7447 74.5579 28.7878ZM74.4813 27.3623C75.0093 27.3339 75.4827 27.1761 75.9014 26.8889C76.3202 26.6017 76.6385 26.2192 76.8564 25.7416C77.0849 25.2634 77.1839 24.7392 77.1532 24.169C77.1226 23.5988 76.9684 23.0934 76.6906 22.653C76.4228 22.2014 76.0657 21.8605 75.6191 21.6304C75.172 21.3896 74.6898 21.2831 74.1724 21.3109C73.6444 21.3393 73.1657 21.4973 72.7364 21.7851C72.3171 22.0618 71.9932 22.4392 71.7647 22.9175C71.5462 23.3845 71.4523 23.9032 71.4829 24.4734C71.5135 25.0436 71.6627 25.5545 71.9305 26.006C72.2089 26.457 72.5716 26.8029 73.0187 27.0437C73.4658 27.2844 73.9534 27.3906 74.4813 27.3623ZM83.9076 28.2858C83.2951 28.3187 82.7331 28.2059 82.2215 27.9474C81.7205 27.6884 81.3188 27.3076 81.0165 26.8049C80.7142 26.3022 80.5454 25.7236 80.5103 25.0689L80.2237 19.7312L81.7126 19.6512L81.9906 24.8306C82.0246 25.4641 82.2422 25.966 82.6433 26.3363C83.0444 26.7066 83.5512 26.8753 84.1636 26.8424C84.7761 26.8096 85.2616 26.5823 85.6202 26.1606C85.9782 25.7284 86.1388 25.1691 86.102 24.4828L85.8307 19.4301L87.3196 19.3502L87.7779 27.8874L86.3365 27.9648L86.2473 26.3017L86.4767 26.4323C86.3049 26.9816 85.9897 27.4221 85.531 27.7539C85.0823 28.0745 84.5411 28.2518 83.9076 28.2858ZM89.5703 19.2294L91.0275 19.1511L91.1168 20.8142L90.8715 20.6844C91.0538 20.1346 91.3693 19.6993 91.818 19.3787C92.2768 19.047 92.8229 18.8641 93.4565 18.8301C94.0583 18.7978 94.6095 18.9059 95.11 19.1543C95.6105 19.4028 96.0113 19.7678 96.3125 20.2494C96.6236 20.7198 96.7954 21.2559 96.8277 21.8578L97.1245 27.3856L95.6356 27.4655L95.3644 22.4129C95.3394 21.9483 95.2337 21.5569 95.0472 21.2386C94.8601 20.9098 94.6033 20.6641 94.2769 20.5016C93.961 20.3385 93.6025 20.2678 93.2012 20.2893C92.5888 20.3222 92.098 20.5498 91.7288 20.972C91.3703 21.3936 91.2094 21.9477 91.2462 22.634L91.5175 27.6866L90.0286 27.7666L89.5703 19.2294ZM102.691 27.1821C101.856 27.2269 101.2 27.0239 100.72 26.5731C100.24 26.1223 99.9775 25.4639 99.931 24.5981L99.6895 20.0998L98.1531 20.1823L98.0774 18.7726L98.3942 18.7556C98.7638 18.7358 99.0535 18.6091 99.2633 18.3754C99.4726 18.1312 99.5667 17.8137 99.5458 17.423L99.4981 16.5361L100.987 16.4561L101.103 18.6102L103.019 18.5073L103.095 19.917L101.178 20.0199L101.417 24.4706C101.442 24.9352 101.572 25.283 101.807 25.514C102.042 25.7449 102.412 25.8468 102.919 25.8196C103.13 25.8083 103.325 25.7819 103.503 25.7406L103.573 27.0553C103.333 27.1211 103.039 27.1634 102.691 27.1821Z" fill="#353E49"/>
<path d="M165.644 11.8729L169.826 11.6484C170.607 11.6064 171.301 11.7174 171.908 11.9813C172.526 12.2447 173.014 12.6474 173.371 13.1895C173.728 13.721 173.926 14.3563 173.966 15.0954C174.005 15.824 173.87 16.4719 173.562 17.0392C173.264 17.6058 172.827 18.0529 172.252 18.3803C171.677 18.7077 170.998 18.8923 170.217 18.9343L167.603 19.0746L167.846 23.5887L166.278 23.6729L165.644 11.8729ZM170.188 17.5062C170.652 17.4813 171.054 17.3697 171.393 17.1715C171.732 16.9733 171.987 16.7001 172.159 16.352C172.342 16.0034 172.421 15.6073 172.397 15.1638C172.373 14.7203 172.252 14.335 172.033 14.0079C171.825 13.6802 171.542 13.4359 171.184 13.2751C170.826 13.1143 170.414 13.0464 169.95 13.0713L167.289 13.2142L167.527 17.6491L170.188 17.5062ZM179.743 23.1406C178.94 23.1837 178.191 23.0333 177.495 22.6894C176.809 22.3345 176.246 21.8246 175.808 21.1598C175.381 20.4944 175.145 19.7446 175.1 18.9104C175.055 18.0657 175.204 17.3005 175.548 16.6148C175.903 15.9181 176.408 15.3562 177.062 14.9292C177.717 14.5022 178.456 14.2666 179.28 14.2224C180.093 14.1788 180.843 14.3344 181.529 14.6894C182.225 15.0333 182.782 15.5382 183.199 16.2041C183.626 16.8589 183.862 17.6034 183.906 18.4376C183.952 19.2929 183.793 20.0692 183.428 20.7666C183.073 21.4633 182.569 22.0252 181.914 22.4522C181.269 22.868 180.545 23.0975 179.743 23.1406ZM179.666 21.7151C180.194 21.6867 180.668 21.529 181.086 21.2417C181.505 20.9545 181.824 20.5721 182.041 20.0944C182.27 19.6162 182.369 19.092 182.338 18.5218C182.308 17.9516 182.153 17.4463 181.876 17.0058C181.608 16.5543 181.251 16.2134 180.804 15.9832C180.357 15.7425 179.875 15.636 179.357 15.6638C178.829 15.6921 178.351 15.8502 177.921 16.138C177.502 16.4146 177.178 16.7921 176.95 17.2703C176.731 17.7374 176.637 18.256 176.668 18.8262C176.699 19.3964 176.848 19.9073 177.116 20.3589C177.394 20.8099 177.757 21.1558 178.204 21.3965C178.651 21.6372 179.138 21.7434 179.666 21.7151ZM189.376 22.5281C188.542 22.5729 187.885 22.3699 187.406 21.9191C186.926 21.4683 186.663 20.81 186.617 19.9441L186.375 15.4458L184.839 15.5283L184.763 14.1187L185.08 14.1017C185.449 14.0818 185.739 13.9551 185.949 13.7214C186.158 13.4772 186.252 13.1598 186.231 12.7691L186.184 11.8821L187.673 11.8022L187.788 13.9562L189.705 13.8534L189.78 15.263L187.864 15.3659L188.103 19.8167C188.128 20.2813 188.258 20.629 188.493 20.86C188.727 21.091 189.098 21.1928 189.605 21.1656C189.816 21.1543 190.011 21.128 190.188 21.0866L190.259 22.4013C190.019 22.4671 189.725 22.5094 189.376 22.5281ZM195.811 22.2779C195.009 22.321 194.27 22.1648 193.594 21.8092C192.918 21.4537 192.372 20.9482 191.956 20.2928C191.549 19.6263 191.324 18.8707 191.278 18.0259C191.233 17.1918 191.372 16.4271 191.695 15.7321C192.028 15.0364 192.502 14.4815 193.115 14.0674C193.727 13.6427 194.424 13.4094 195.206 13.3674C196.008 13.3243 196.721 13.4767 197.343 13.8245C197.976 14.1718 198.473 14.6534 198.834 15.2694C199.195 15.8748 199.395 16.5365 199.433 17.2546C199.449 17.5502 199.437 17.8209 199.397 18.0666L192.397 18.4424L192.328 17.1595L198.473 16.8296L197.791 17.438C197.858 16.905 197.784 16.4218 197.57 15.9885C197.356 15.5552 197.042 15.2226 196.627 14.9907C196.212 14.7589 195.762 14.656 195.276 14.682C194.78 14.7087 194.328 14.8653 193.92 15.152C193.521 15.4275 193.224 15.8088 193.028 16.2959C192.832 16.783 192.771 17.3369 192.847 17.9576C192.838 18.5723 192.962 19.111 193.22 19.5737C193.488 20.0253 193.845 20.3714 194.292 20.6122C194.739 20.8529 195.227 20.9591 195.755 20.9308C196.293 20.9019 196.751 20.7502 197.128 20.4758C197.516 20.2008 197.83 19.8398 198.071 19.3927L199.34 19.9599C199.099 20.5871 198.661 21.1189 198.028 21.5553C197.395 21.9917 196.656 22.2326 195.811 22.2779ZM201.128 13.2401L202.585 13.1618L202.674 14.8249L202.429 14.6951C202.612 14.1453 202.927 13.71 203.376 13.3894C203.834 13.0577 204.381 12.8748 205.014 12.8408C205.616 12.8085 206.167 12.9166 206.668 13.165C207.168 13.4135 207.569 13.7785 207.87 14.2601C208.181 14.7305 208.353 15.2666 208.385 15.8685L208.682 21.3963L207.193 21.4762L206.922 16.4236C206.897 15.959 206.791 15.5676 206.605 15.2493C206.418 14.9205 206.161 14.6748 205.835 14.5123C205.519 14.3492 205.16 14.2785 204.759 14.3C204.147 14.3329 203.656 14.5605 203.287 14.9827C202.928 15.4043 202.767 15.9584 202.804 16.6447L203.075 21.6973L201.586 21.7773L201.128 13.2401ZM214.248 21.1928C213.414 21.2376 212.757 21.0346 212.278 20.5838C211.798 20.133 211.535 19.4746 211.489 18.6088L211.247 14.1105L209.711 14.193L209.635 12.7833L209.952 12.7663C210.321 12.7465 210.611 12.6198 210.821 12.3861C211.03 12.1419 211.124 11.8244 211.103 11.4337L211.056 10.5468L212.545 10.4668L212.66 12.6209L214.577 12.518L214.653 13.9277L212.736 14.0306L212.975 18.4813C213 18.9459 213.13 19.2937 213.365 19.5247C213.599 19.7556 213.97 19.8575 214.477 19.8303C214.688 19.819 214.883 19.7926 215.061 19.7513L215.131 21.066C214.891 21.1318 214.597 21.1741 214.248 21.1928ZM216.58 12.4105L218.069 12.3306L218.527 20.8677L217.039 20.9477L216.58 12.4105ZM217.267 11.0075C216.993 11.0223 216.767 10.9497 216.589 10.7898C216.411 10.6299 216.314 10.4127 216.299 10.1382C216.285 9.86364 216.357 9.63736 216.517 9.45934C216.677 9.28132 216.894 9.18494 217.169 9.1702C217.443 9.15546 217.67 9.22803 217.848 9.38791C218.026 9.54779 218.122 9.765 218.137 10.0395C218.151 10.3141 218.079 10.5404 217.919 10.7184C217.759 10.8964 217.542 10.9928 217.267 11.0075ZM223.31 20.8016C222.761 20.831 222.26 20.7574 221.805 20.5806C221.361 20.3926 221.008 20.1257 220.746 19.7797C220.483 19.4231 220.339 19.0073 220.313 18.5321C220.276 17.8352 220.477 17.2367 220.916 16.7366C221.355 16.2365 222.041 15.8873 222.972 15.689L226.096 14.9971L226.163 16.2325L223.37 16.8749C222.836 16.9883 222.449 17.1785 222.209 17.4455C221.969 17.702 221.859 18.0203 221.879 18.4004C221.898 18.7489 222.05 19.0319 222.338 19.2495C222.635 19.4665 222.995 19.5636 223.417 19.5409C223.935 19.5132 224.388 19.3776 224.778 19.1343C225.177 18.8905 225.478 18.5673 225.679 18.1647C225.879 17.7515 225.966 17.3126 225.941 16.848L225.824 14.6622C225.799 14.1976 225.605 13.8321 225.241 13.5657C224.887 13.2882 224.436 13.1642 223.887 13.1937C223.401 13.2198 222.98 13.3694 222.624 13.6427C222.268 13.9054 222.005 14.2478 221.837 14.6698L220.519 14.0734C220.73 13.4691 221.147 12.9542 221.77 12.529C222.393 12.1037 223.085 11.8706 223.845 11.8298C224.489 11.7952 225.066 11.8913 225.576 12.1181C226.096 12.3338 226.506 12.6613 226.805 13.1006C227.113 13.5288 227.283 14.0227 227.313 14.5823L227.624 20.3794L226.183 20.4567L226.096 18.8412L226.371 18.9376C226.125 19.4697 225.73 19.9039 225.186 20.2402C224.643 20.5765 224.018 20.7636 223.31 20.8016ZM229.249 8.26752L230.737 8.18758L231.381 20.1777L229.892 20.2576L229.249 8.26752ZM235.914 8.10028L240.095 7.87579C240.877 7.83384 241.571 7.94482 242.178 8.20874C242.796 8.47208 243.284 8.87479 243.641 9.41686C243.998 9.94837 244.196 10.5837 244.236 11.3228C244.275 12.0514 244.14 12.6993 243.832 13.2666C243.534 13.8332 243.097 14.2803 242.522 14.6077C241.946 14.9351 241.268 15.1198 240.487 15.1617L237.873 15.302L238.116 19.8161L236.547 19.9003L235.914 8.10028ZM240.458 13.7336C240.922 13.7087 241.324 13.5971 241.663 13.3989C242.002 13.2007 242.257 12.9275 242.429 12.5794C242.611 12.2308 242.691 11.8347 242.667 11.3912C242.643 10.9477 242.522 10.5624 242.303 10.2353C242.095 9.90758 241.812 9.66333 241.454 9.50253C241.095 9.34173 240.684 9.2738 240.219 9.29875L237.559 9.4416L237.797 13.8765L240.458 13.7336ZM248.322 19.4588C247.773 19.4883 247.271 19.4146 246.817 19.2378C246.372 19.0498 246.019 18.7829 245.757 18.4369C245.494 18.0804 245.35 17.6645 245.325 17.1893C245.287 16.4924 245.488 15.8939 245.927 15.3938C246.366 14.8937 247.052 14.5445 247.984 14.3462L251.108 13.6543L251.174 14.8897L248.381 15.5321C247.847 15.6455 247.46 15.8357 247.22 16.1027C246.98 16.3592 246.87 16.6775 246.89 17.0576C246.909 17.4061 247.062 17.6891 247.349 17.9067C247.646 18.1237 248.006 18.2208 248.429 18.1982C248.946 18.1704 249.399 18.0348 249.789 17.7916C250.189 17.5477 250.489 17.2245 250.69 16.8219C250.89 16.4087 250.978 15.9698 250.953 15.5052L250.835 13.3195C250.81 12.8548 250.616 12.4893 250.252 12.2229C249.899 11.9454 249.447 11.8214 248.898 11.8509C248.412 11.877 247.991 12.0266 247.636 12.2999C247.279 12.5626 247.017 12.905 246.849 13.327L245.53 12.7306C245.741 12.1263 246.158 11.6115 246.781 11.1862C247.405 10.7609 248.096 10.5279 248.857 10.487C249.501 10.4525 250.078 10.5486 250.588 10.7753C251.107 10.991 251.517 11.3185 251.816 11.7578C252.125 12.186 252.294 12.6799 252.324 13.2395L252.635 19.0366L251.194 19.114L251.107 17.4984L251.383 17.5948C251.136 18.1269 250.741 18.5611 250.198 18.8974C249.654 19.2337 249.029 19.4208 248.322 19.4588ZM257.561 18.1208L257.63 19.4038L253.495 10.4286L255.095 10.3428L258.321 17.4765L257.846 17.502L260.274 10.0647L261.905 9.9771L257.814 21.9355L256.182 22.0231L257.561 18.1208ZM267.569 18.4255C266.766 18.4686 266.017 18.3182 265.32 17.9743C264.634 17.6193 264.072 17.1094 263.634 16.4446C263.206 15.7793 262.97 15.0295 262.926 14.1953C262.88 13.3505 263.03 12.5853 263.374 11.8997C263.729 11.2029 264.233 10.6411 264.888 10.2141C265.543 9.78711 266.282 9.55152 267.106 9.5073C267.919 9.46365 268.668 9.61931 269.355 9.97429C270.051 10.3181 270.607 10.823 271.024 11.489C271.451 12.1438 271.687 12.8883 271.732 13.7225C271.778 14.5778 271.618 15.3541 271.253 16.0515C270.899 16.7482 270.394 17.3101 269.74 17.7371C269.095 18.1529 268.371 18.3824 267.569 18.4255ZM267.492 17C268.02 16.9716 268.493 16.8138 268.912 16.5266C269.331 16.2394 269.649 15.8569 269.867 15.3793C270.096 14.9011 270.195 14.3769 270.164 13.8067C270.133 13.2365 269.979 12.7312 269.701 12.2907C269.434 11.8391 269.076 11.4983 268.63 11.2681C268.183 11.0273 267.7 10.9209 267.183 10.9486C266.655 10.977 266.176 11.1351 265.747 11.4228C265.328 11.6995 265.004 12.077 264.775 12.5552C264.557 13.0223 264.463 13.5409 264.494 14.1111C264.524 14.6813 264.673 15.1922 264.941 15.6438C265.22 16.0948 265.582 16.4406 266.029 16.6814C266.477 16.9221 266.964 17.0283 267.492 17ZM276.918 17.9235C276.306 17.9564 275.744 17.8436 275.232 17.5851C274.731 17.3261 274.329 16.9453 274.027 16.4426C273.725 15.9399 273.556 15.3613 273.521 14.7066L273.234 9.36888L274.723 9.28894L275.001 14.4683C275.035 15.1018 275.253 15.6038 275.654 15.974C276.055 16.3443 276.562 16.513 277.174 16.4801C277.787 16.4473 278.272 16.22 278.631 15.7983C278.989 15.3661 279.149 14.8068 279.113 14.1205L278.841 9.06785L280.33 8.98792L280.789 17.5251L279.347 17.6025L279.258 15.9394L279.487 16.07C279.316 16.6193 279 17.0599 278.542 17.3916C278.093 17.7122 277.552 17.8895 276.918 17.9235ZM286.529 17.3122C285.695 17.357 285.038 17.154 284.558 16.7032C284.079 16.2524 283.816 15.5941 283.769 14.7282L283.528 10.23L281.991 10.3125L281.916 8.9028L282.233 8.88579C282.602 8.86595 282.892 8.7392 283.102 8.50556C283.311 8.26135 283.405 7.94389 283.384 7.5532L283.336 6.66622L284.825 6.58629L284.941 8.74038L286.857 8.63749L286.933 10.0472L285.017 10.15L285.256 14.6008C285.281 15.0654 285.41 15.4132 285.645 15.6441C285.88 15.8751 286.251 15.977 286.758 15.9498C286.969 15.9384 287.163 15.9121 287.341 15.8708L287.412 17.1854C287.172 17.2512 286.877 17.2935 286.529 17.3122Z" fill="#353E49"/>
<rect x="3.52278" y="59.4402" width="140.383" height="78.0462" rx="5.94815" transform="rotate(-3.0731 3.52278 59.4402)" fill="#141B23"/>
<rect x="3.52278" y="59.4402" width="140.383" height="78.0462" rx="5.94815" transform="rotate(-3.0731 3.52278 59.4402)" stroke="#2F3843" stroke-width="1.32181"/>
<path d="M27.9068 91.4155L31.0112 91.2489L36.8774 103.517L36.1132 103.781L35.4277 91.0118L37.8484 90.8818L38.5875 104.648L35.4461 104.817L29.6674 92.4515L30.3771 92.2095L31.0666 105.052L28.6459 105.182L27.9068 91.4155ZM26.7559 97.5929L39.6541 96.9004L39.7374 98.4526L26.8392 99.1451L26.7559 97.5929ZM43.2952 92.7391L40.6342 92.8819L40.5191 90.7384L45.6932 90.4606L46.4323 104.227L43.9192 104.362L43.2952 92.7391ZM50.1518 105.733C50.5653 105.612 50.8874 105.397 51.1179 105.088C51.3614 104.79 51.5078 104.412 51.5573 103.952C51.2246 103.97 50.9412 103.868 50.7069 103.646C50.4842 103.411 50.3636 103.121 50.3451 102.776C50.3259 102.418 50.4271 102.116 50.6486 101.87C50.8694 101.611 51.1585 101.472 51.5157 101.453C51.8976 101.432 52.2061 101.539 52.441 101.774C52.676 102.008 52.8067 102.372 52.8332 102.864C52.8914 103.948 52.6978 104.83 52.2524 105.509C51.8076 106.2 51.1286 106.668 50.2152 106.915L50.1518 105.733ZM61.3153 103.651C60.2435 103.708 59.2729 103.464 58.4034 102.917C57.534 102.371 56.8364 101.575 56.3108 100.528C55.7968 99.4684 55.502 98.2364 55.4267 96.832C55.3513 95.4276 55.5127 94.1773 55.911 93.081C56.3092 91.9848 56.9113 91.1185 57.7173 90.4822C58.5233 89.8459 59.4621 89.499 60.5339 89.4415C61.6426 89.382 62.6255 89.6257 63.4827 90.1727C64.3521 90.7191 65.0435 91.5159 65.5569 92.5632C66.0825 93.6098 66.3831 94.8353 66.4585 96.2397C66.5339 97.6441 66.3666 98.9009 65.9567 100.01C65.5584 101.106 64.9563 101.973 64.1503 102.609C63.3567 103.245 62.4117 103.592 61.3153 103.651ZM61.1923 101.359C61.8205 101.326 62.3462 101.106 62.7692 100.7C63.2038 100.281 63.519 99.7086 63.7147 98.9815C63.922 98.2414 63.9989 97.3725 63.9454 96.3746C63.8924 95.3891 63.7233 94.5395 63.4379 93.8259C63.1648 93.1117 62.7901 92.5758 62.3138 92.2184C61.8498 91.8603 61.2975 91.6985 60.6569 91.7329C60.0409 91.7659 59.5215 91.9853 59.0985 92.391C58.6755 92.7967 58.3603 93.3696 58.153 94.1097C57.9573 94.8367 57.8862 95.6992 57.9398 96.6971C57.9927 97.6826 58.1557 98.5325 58.4288 99.2468C58.7135 99.948 59.0882 100.484 59.5529 100.854C60.0298 101.224 60.5763 101.392 61.1923 101.359ZM74.3984 102.948C73.3266 103.006 72.356 102.761 71.4865 102.215C70.6171 101.669 69.9195 100.872 69.3939 99.8256C68.8799 98.766 68.5852 97.534 68.5098 96.1296C68.4344 94.7252 68.5958 93.4749 68.9941 92.3786C69.3923 91.2824 69.9944 90.4161 70.8004 89.7798C71.6064 89.1435 72.5452 88.7966 73.617 88.7391C74.7257 88.6796 75.7086 88.9233 76.5658 89.4703C77.4352 90.0167 78.1266 90.8135 78.64 91.8608C79.1656 92.9074 79.4662 94.1329 79.5416 95.5373C79.617 96.9417 79.4497 98.1985 79.0398 99.3077C78.6415 100.404 78.0394 101.27 77.2334 101.907C76.4398 102.542 75.4948 102.889 74.3984 102.948ZM74.2754 100.657C74.9036 100.623 75.4293 100.403 75.8523 99.9977C76.2869 99.5791 76.6021 99.0062 76.7978 98.2791C77.0051 97.539 77.082 96.6701 77.0285 95.6722C76.9756 94.6867 76.8064 93.8371 76.521 93.1235C76.2479 92.4093 75.8732 91.8734 75.3969 91.516C74.9329 91.1579 74.3806 90.9961 73.74 91.0305C73.1241 91.0635 72.6046 91.2829 72.1816 91.6886C71.7586 92.0943 71.4434 92.6672 71.2361 93.4073C71.0404 94.1343 70.9693 94.9968 71.0229 95.9947C71.0758 96.9802 71.2388 97.8301 71.5119 98.5444C71.7966 99.2456 72.1713 99.7815 72.636 100.152C73.1129 100.522 73.6594 100.69 74.2754 100.657ZM87.4815 102.246C86.4097 102.303 85.4391 102.059 84.5697 101.513C83.7002 100.966 83.0026 100.17 82.477 99.1232C81.963 98.0636 81.6683 96.8316 81.5929 95.4272C81.5175 94.0228 81.6789 92.7725 82.0772 91.6762C82.4754 90.58 83.0776 89.7137 83.8835 89.0774C84.6895 88.4412 85.6283 88.0942 86.7001 88.0367C87.8088 87.9772 88.7918 88.2209 89.6489 88.7679C90.5183 89.3143 91.2097 90.1111 91.7231 91.1584C92.2488 92.205 92.5493 93.4305 92.6247 94.8349C92.7001 96.2393 92.5328 97.4961 92.1229 98.6053C91.7246 99.7016 91.1225 100.568 90.3166 101.204C89.5229 101.84 88.5779 102.187 87.4815 102.246ZM87.3585 99.9545C87.9867 99.9208 88.5124 99.7011 88.9354 99.2954C89.37 98.8767 89.6852 98.3038 89.8809 97.5767C90.0882 96.8366 90.1651 95.9677 90.1116 94.9698C90.0587 93.9843 89.8895 93.1347 89.6041 92.4211C89.331 91.7069 88.9563 91.171 88.48 90.8136C88.016 90.4555 87.4637 90.2937 86.8231 90.3281C86.2072 90.3611 85.6877 90.5805 85.2647 90.9862C84.8417 91.3919 84.5265 91.9648 84.3192 92.7049C84.1235 93.4319 84.0524 94.2944 84.106 95.2923C84.1589 96.2778 84.3219 97.1277 84.595 97.842C84.8797 98.5432 85.2544 99.0791 85.7191 99.4495C86.196 99.8192 86.7425 99.9876 87.3585 99.9545Z" fill="#353E49"/>
<path d="M194.048 77.3971L194.787 77.3574L197.974 81.4857L197.562 81.5079L200.278 77.0626L201.017 77.0229L201.44 84.8896L200.595 84.935L200.234 78.2087L200.514 78.2995L197.846 82.6469L197.804 82.6492L194.696 78.6119L194.954 78.4921L195.315 85.2184L194.471 85.2638L194.048 77.3971ZM204.825 84.8349C204.473 84.8538 204.149 84.8042 203.853 84.6859C203.564 84.5602 203.332 84.3821 203.157 84.1514C202.982 83.9137 202.886 83.6435 202.87 83.3408C202.846 82.8833 202.973 82.4882 203.251 82.1555C203.537 81.8225 203.98 81.5904 204.58 81.4594L206.778 80.9708L206.816 81.6888L204.807 82.1355C204.416 82.22 204.131 82.3624 203.951 82.5627C203.778 82.7556 203.699 82.9893 203.713 83.2638C203.727 83.5172 203.84 83.7265 204.054 83.8915C204.268 84.0565 204.529 84.1307 204.839 84.1141C205.212 84.0941 205.542 83.9951 205.829 83.8174C206.116 83.6396 206.333 83.4056 206.48 83.1153C206.626 82.818 206.69 82.4968 206.672 82.1519L206.595 80.7158C206.576 80.3779 206.438 80.11 206.181 79.9121C205.923 79.7141 205.597 79.6257 205.203 79.6469C204.865 79.665 204.57 79.7655 204.319 79.9485C204.068 80.1314 203.883 80.3673 203.764 80.656L203.025 80.3039C203.167 79.9291 203.439 79.6074 203.841 79.3387C204.25 79.0626 204.69 78.9119 205.162 78.8866C205.57 78.8647 205.941 78.926 206.273 79.0705C206.606 79.215 206.868 79.4269 207.059 79.706C207.258 79.9848 207.367 80.3073 207.387 80.6733L207.595 84.5591L206.803 84.6017L206.743 83.4718L206.865 83.5817C206.728 83.9209 206.472 84.21 206.096 84.449C205.727 84.6806 205.304 84.8092 204.825 84.8349ZM210.36 81.5726L208.234 78.8488L209.205 78.7966L211.095 81.2473L210.556 81.2762L212.162 78.6379L213.133 78.5857L211.311 81.5216L213.437 84.2455L212.466 84.2976L210.587 81.8464L211.125 81.8175L209.509 84.4564L208.527 84.5091L210.36 81.5726ZM215.067 84.158C214.912 84.1663 214.775 84.1207 214.657 84.0212C214.545 83.9142 214.485 83.7833 214.477 83.6284C214.468 83.4665 214.514 83.3299 214.614 83.2187C214.721 83.107 214.852 83.047 215.006 83.0387C215.168 83.03 215.305 83.0757 215.416 83.1756C215.527 83.2755 215.587 83.4064 215.596 83.5683C215.605 83.7302 215.559 83.8668 215.459 83.9781C215.359 84.0893 215.228 84.1493 215.067 84.158ZM214.823 79.6175C214.668 79.6258 214.531 79.5802 214.413 79.4807C214.301 79.3737 214.241 79.2428 214.233 79.0879C214.224 78.926 214.27 78.7894 214.37 78.6782C214.477 78.5665 214.608 78.5066 214.763 78.4982C214.925 78.4895 215.061 78.5352 215.172 78.6351C215.284 78.735 215.344 78.8659 215.352 79.0278C215.361 79.1897 215.315 79.3263 215.216 79.4376C215.116 79.5489 214.985 79.6088 214.823 79.6175ZM195.179 91.3565L196.055 91.3095L200.366 98.0355L200.081 98.0508L199.709 91.1133L200.501 91.0708L200.923 98.9375L200.047 98.9846L195.733 92.2163L196.018 92.201L196.393 99.1807L195.601 99.2232L195.179 91.3565ZM194.527 94.9921L201.538 94.6156L201.575 95.302L194.564 95.6784L194.527 94.9921ZM205.343 98.8273C204.935 98.8492 204.551 98.7992 204.191 98.6773C203.839 98.555 203.529 98.3705 203.262 98.1236C202.994 97.8768 202.784 97.5774 202.631 97.2256L203.29 96.8725C203.474 97.2721 203.744 97.5823 204.102 97.8032C204.46 98.0169 204.86 98.1119 205.304 98.0881C205.656 98.0692 205.965 97.9855 206.233 97.837C206.5 97.6815 206.703 97.4694 206.844 97.2006C206.985 96.9248 207.045 96.6038 207.026 96.2378C206.997 95.6957 206.801 95.2791 206.44 94.9879C206.085 94.6963 205.64 94.5648 205.105 94.5936C204.908 94.6042 204.719 94.6284 204.537 94.6664L204.349 94.3059L206.326 91.4993L202.705 91.6938L202.665 90.9546L207.237 90.7092L207.277 91.4483L205.426 94.0575L205.313 93.9259C205.785 93.9146 206.21 94.0048 206.588 94.1963C206.965 94.3808 207.265 94.6471 207.488 94.9951C207.719 95.3358 207.846 95.7349 207.87 96.1924C207.895 96.657 207.805 97.0855 207.601 97.4777C207.395 97.8629 207.095 98.1791 206.698 98.4262C206.309 98.666 205.857 98.7997 205.343 98.8273ZM212.549 98.4404C211.936 98.4733 211.385 98.3335 210.895 98.0209C210.406 97.7083 210.014 97.2528 209.721 96.6543C209.427 96.0489 209.258 95.3449 209.215 94.5423C209.172 93.7398 209.265 93.0254 209.492 92.399C209.72 91.7725 210.057 91.2779 210.503 90.9151C210.957 90.5518 211.49 90.3538 212.102 90.3209C212.715 90.288 213.262 90.4281 213.745 90.741C214.235 91.0536 214.626 91.5091 214.92 92.1076C215.213 92.706 215.381 93.4065 215.424 94.209C215.467 95.0115 215.375 95.7295 215.148 96.363C214.928 96.989 214.591 97.4836 214.137 97.8469C213.691 98.2097 213.161 98.4076 212.549 98.4404ZM212.506 97.6485C212.95 97.6247 213.333 97.47 213.657 97.1843C213.987 96.8913 214.234 96.4932 214.397 95.9903C214.561 95.4803 214.625 94.9014 214.59 94.2538C214.555 93.6062 214.43 93.0411 214.213 92.5585C213.997 92.0759 213.709 91.7102 213.349 91.4612C212.997 91.2048 212.595 91.0887 212.145 91.1129C211.701 91.1367 211.314 91.2951 210.984 91.5882C210.661 91.8738 210.417 92.2681 210.253 92.7711C210.09 93.2741 210.025 93.8494 210.06 94.497C210.095 95.1446 210.221 95.7097 210.437 96.1923C210.654 96.6749 210.938 97.0443 211.291 97.3007C211.65 97.5568 212.056 97.6727 212.506 97.6485ZM220.282 98.0252C219.67 98.0581 219.119 97.9183 218.629 97.6057C218.139 97.2931 217.748 96.8376 217.454 96.2391C217.161 95.6336 216.992 94.9296 216.949 94.1271C216.906 93.3246 216.998 92.6102 217.226 91.9837C217.454 91.3573 217.791 90.8627 218.237 90.4998C218.691 90.1366 219.224 89.9386 219.836 89.9057C220.448 89.8728 220.996 90.0129 221.479 90.3258C221.969 90.6384 222.36 91.0939 222.653 91.6924C222.947 92.2908 223.115 92.9913 223.158 93.7938C223.201 94.5963 223.109 95.3143 222.882 95.9478C222.661 96.5738 222.324 97.0684 221.871 97.4316C221.424 97.7945 220.895 97.9923 220.282 98.0252ZM220.24 97.2333C220.683 97.2095 221.067 97.0547 221.391 96.7691C221.721 96.476 221.968 96.078 222.131 95.5751C222.294 95.065 222.359 94.4862 222.324 93.8386C222.289 93.1909 222.164 92.6258 221.947 92.1433C221.73 91.6607 221.443 91.295 221.083 91.046C220.731 90.7896 220.329 90.6735 219.879 90.6976C219.435 90.7215 219.048 90.8799 218.718 91.173C218.394 91.4586 218.151 91.8529 217.987 92.3559C217.824 92.8588 217.759 93.4341 217.794 94.0818C217.829 94.7294 217.954 95.2945 218.171 95.7771C218.387 96.2596 218.672 96.6291 219.025 96.8855C219.384 97.1416 219.789 97.2575 220.24 97.2333ZM224.518 89.6543L225.31 89.6118L225.611 95.2082L225.27 95.1736L228.276 91.7929L229.3 91.7379L227.205 94.1272L229.805 97.3869L228.854 97.438L226.416 94.4237L226.925 94.4388L225.399 96.1939L225.628 95.525L225.739 97.6052L224.947 97.6477L224.518 89.6543Z" fill="white"/>
<rect x="167.086" y="50.6589" width="140.383" height="78.0462" rx="5.94815" transform="rotate(-3.0731 167.086 50.6589)" fill="#141B23"/>
<rect x="167.086" y="50.6589" width="140.383" height="78.0462" rx="5.94815" transform="rotate(-3.0731 167.086 50.6589)" stroke="#2F3843" stroke-width="1.32181"/>
<path d="M191.47 82.6343L194.574 82.4676L200.44 94.7359L199.676 94.9993L198.991 82.2305L201.411 82.1005L202.15 95.8672L199.009 96.0359L193.23 83.6702L193.94 83.4283L194.63 96.271L192.209 96.401L191.47 82.6343ZM190.319 88.8116L203.217 88.1192L203.3 89.6714L190.402 90.3639L190.319 88.8116ZM209.712 95.6837C208.96 95.724 208.238 95.6207 207.545 95.3737C206.852 95.1268 206.258 94.7633 205.763 94.2834C205.267 93.7911 204.915 93.2046 204.705 92.524L206.862 91.6299C207.106 92.2469 207.464 92.7095 207.938 93.0176C208.423 93.3128 208.974 93.4439 209.59 93.4108C210.07 93.385 210.49 93.2698 210.85 93.0652C211.209 92.8605 211.485 92.5801 211.675 92.2239C211.866 91.8554 211.948 91.431 211.922 90.9505C211.884 90.2483 211.627 89.7062 211.149 89.3241C210.683 88.9291 210.074 88.7517 209.323 88.7921C208.818 88.8192 208.355 88.9429 207.934 89.1631L207.297 87.9928L210.645 83.736L205.028 84.0376L204.914 81.9125L213.358 81.4591L213.465 83.4364L210.105 87.8235L210.091 86.8791C210.905 86.8478 211.629 86.988 212.264 87.2999C212.91 87.6111 213.423 88.0654 213.801 88.6629C214.178 89.248 214.388 89.9409 214.431 90.7417C214.478 91.6163 214.305 92.4225 213.913 93.1602C213.532 93.8972 212.971 94.4894 212.229 94.937C211.487 95.3845 210.648 95.6334 209.712 95.6837ZM217.577 96.744C217.99 96.6229 218.312 96.408 218.543 96.0991C218.786 95.8019 218.933 95.4234 218.982 94.9636C218.649 94.9814 218.366 94.8793 218.132 94.6571C217.909 94.422 217.788 94.1319 217.77 93.787C217.751 93.4298 217.852 93.1278 218.073 92.8812C218.294 92.6222 218.583 92.4832 218.94 92.464C219.322 92.4435 219.631 92.5505 219.866 92.785C220.101 93.0194 220.231 93.3831 220.258 93.8758C220.316 94.9599 220.123 95.8413 219.677 96.52C219.232 97.211 218.553 97.6799 217.64 97.9266L217.577 96.744ZM228.74 94.6621C227.668 94.7196 226.698 94.4752 225.828 93.9289C224.959 93.3825 224.261 92.586 223.736 91.5394C223.222 90.4798 222.927 89.2478 222.851 87.8434C222.776 86.439 222.937 85.1887 223.336 84.0925C223.734 82.9962 224.336 82.13 225.142 81.4937C225.948 80.8574 226.887 80.5105 227.959 80.4529C229.067 80.3934 230.05 80.6371 230.907 81.1841C231.777 81.7305 232.468 82.5273 232.982 83.5746C233.507 84.6212 233.808 85.8467 233.883 87.2511C233.959 88.6555 233.791 89.9123 233.381 91.0215C232.983 92.1178 232.381 92.984 231.575 93.6203C230.781 94.256 229.836 94.6032 228.74 94.6621ZM228.617 92.3707C229.245 92.337 229.771 92.1173 230.194 91.7116C230.629 91.2929 230.944 90.72 231.139 89.9929C231.347 89.2529 231.424 88.3839 231.37 87.3861C231.317 86.4005 231.148 85.551 230.863 84.8373C230.59 84.1231 230.215 83.5872 229.739 83.2298C229.275 82.8717 228.722 82.7099 228.082 82.7443C227.466 82.7773 226.946 82.9967 226.523 83.4024C226.1 83.8081 225.785 84.381 225.578 85.1211C225.382 85.8482 225.311 86.7106 225.365 87.7085C225.417 88.694 225.58 89.5439 225.854 90.2582C226.138 90.9595 226.513 91.4953 226.978 91.8657C227.455 92.2355 228.001 92.4038 228.617 92.3707ZM241.823 93.9597C240.751 94.0172 239.781 93.7728 238.911 93.2265C238.042 92.6801 237.344 91.8836 236.819 90.837C236.305 89.7774 236.01 88.5454 235.935 87.141C235.859 85.7366 236.021 84.4863 236.419 83.3901C236.817 82.2938 237.419 81.4276 238.225 80.7913C239.031 80.155 239.97 79.8081 241.042 79.7505C242.15 79.691 243.133 79.9347 243.991 80.4817C244.86 81.0281 245.551 81.8249 246.065 82.8722C246.59 83.9188 246.891 85.1443 246.966 86.5487C247.042 87.9531 246.874 89.2099 246.465 90.3191C246.066 91.4154 245.464 92.2816 244.658 92.9179C243.865 93.5536 242.92 93.9008 241.823 93.9597ZM241.7 91.6683C242.328 91.6346 242.854 91.4149 243.277 91.0092C243.712 90.5905 244.027 90.0176 244.223 89.2905C244.43 88.5505 244.507 87.6815 244.453 86.6837C244.4 85.6981 244.231 84.8486 243.946 84.135C243.673 83.4207 243.298 82.8848 242.822 82.5274C242.358 82.1693 241.805 82.0075 241.165 82.0419C240.549 82.0749 240.029 82.2943 239.606 82.7C239.183 83.1057 238.868 83.6786 238.661 84.4187C238.465 85.1458 238.394 86.0082 238.448 87.0061C238.501 87.9916 238.664 88.8415 238.937 89.5558C239.221 90.2571 239.596 90.7929 240.061 91.1633C240.538 91.5331 241.084 91.7014 241.7 91.6683ZM254.906 93.2573C253.834 93.3148 252.864 93.0704 251.994 92.5241C251.125 91.9777 250.427 91.1812 249.902 90.1346C249.388 89.075 249.093 87.843 249.018 86.4386C248.942 85.0342 249.104 83.7839 249.502 82.6877C249.9 81.5914 250.502 80.7252 251.308 80.0889C252.114 79.4526 253.053 79.1057 254.125 79.0481C255.234 78.9886 256.217 79.2323 257.074 79.7793C257.943 80.3257 258.634 81.1225 259.148 82.1698C259.674 83.2164 259.974 84.442 260.049 85.8463C260.125 87.2507 259.958 88.5075 259.548 89.6167C259.149 90.713 258.547 91.5793 257.741 92.2155C256.948 92.8512 256.003 93.1984 254.906 93.2573ZM254.783 90.9659C255.412 90.9322 255.937 90.7125 256.36 90.3068C256.795 89.8881 257.11 89.3152 257.306 88.5881C257.513 87.8481 257.59 86.9791 257.536 85.9813C257.483 84.9957 257.314 84.1462 257.029 83.4326C256.756 82.7183 256.381 82.1824 255.905 81.825C255.441 81.4669 254.888 81.3051 254.248 81.3395C253.632 81.3726 253.112 81.5919 252.689 81.9976C252.266 82.4033 251.951 82.9762 251.744 83.7163C251.548 84.4434 251.477 85.3058 251.531 86.3037C251.584 87.2892 251.747 88.1391 252.02 88.8534C252.304 89.5547 252.679 90.0905 253.144 90.4609C253.621 90.8307 254.167 90.999 254.783 90.9659Z" fill="#353E49"/>
</svg>
