<svg width="88" height="25" viewBox="0 0 88 25" fill="none" xmlns="http://www.w3.org/2000/svg">
<g clip-path="url(#clip0_38_6799)">
<path d="M27.3933 13.3709C27.3682 13.7217 27.3002 14.035 27.1891 14.3109C27.083 14.5826 26.9496 14.8203 26.789 15.024C26.6284 15.2277 26.4451 15.3977 26.2391 15.534C26.0331 15.6704 25.8223 15.7789 25.6066 15.8596C25.3909 15.9403 25.1724 15.9957 24.9513 16.0256C24.7346 16.0559 24.5309 16.0642 24.3403 16.0506L17.5095 15.5618L17.6366 13.7853L24.4674 14.2741C24.8079 14.2985 25.0784 14.2171 25.2789 14.03C25.4839 13.8432 25.5985 13.5813 25.6226 13.2442C25.6343 13.0802 25.6201 12.9281 25.58 12.7879C25.5398 12.6477 25.4756 12.524 25.3874 12.417C25.3038 12.3103 25.1958 12.2247 25.0635 12.1603C24.9358 12.0963 24.7902 12.0583 24.6268 12.0467L20.5542 11.7552C20.2681 11.7348 19.963 11.6626 19.6387 11.5387C19.3148 11.4102 19.0179 11.2218 18.7482 10.9736C18.483 10.7257 18.2683 10.4104 18.1039 10.0278C17.9442 9.64557 17.8834 9.18792 17.9215 8.65501C17.9597 8.12205 18.0849 7.68002 18.2971 7.32895C18.5142 6.97361 18.7716 6.69214 19.0694 6.48455C19.3721 6.27273 19.6927 6.12856 20.0313 6.05204C20.3702 5.97101 20.6827 5.9407 20.9688 5.96117L26.9959 6.39245L26.8688 8.16894L20.8416 7.73766C20.5057 7.71362 20.235 7.79727 20.0296 7.98861C19.8288 8.18023 19.7164 8.44463 19.6922 8.78171C19.6678 9.12331 19.7415 9.40102 19.9133 9.61477C20.0899 9.82428 20.3463 9.94106 20.6823 9.9651L24.7549 10.2565L24.7684 10.2575C24.9588 10.2757 25.1589 10.3175 25.3687 10.3828C25.5788 10.4437 25.7848 10.5317 25.9864 10.6468C26.1927 10.7623 26.3855 10.9043 26.5652 11.0728C26.7451 11.2368 26.9001 11.431 27.03 11.6555C27.1646 11.8803 27.265 12.1347 27.3313 12.4188C27.3977 12.7028 27.4184 13.0202 27.3933 13.3709ZM34.9095 19.1281L33.1388 19.0014L33.6546 11.793C33.6712 11.5607 33.6247 11.3811 33.5152 11.2542C33.4059 11.1228 33.231 11.0484 32.9904 11.0312L29.7963 10.8027C29.5783 10.7871 29.4009 10.8431 29.264 10.9706C29.1275 11.0936 29.0518 11.2576 29.0372 11.4626L28.8651 13.8677C28.8484 14.1 28.897 14.282 29.0108 14.4138C29.1246 14.5456 29.2995 14.6199 29.5356 14.6368L32.7161 14.8643L32.589 16.6408L29.3949 16.4123C29.1497 16.3947 28.8849 16.3323 28.6005 16.2249C28.3162 16.1176 28.0561 15.9571 27.8204 15.7433C27.5896 15.5254 27.4014 15.2532 27.2559 14.9269C27.1153 14.5963 27.0614 14.2011 27.0944 13.741L27.2665 11.3359C27.2785 11.1674 27.3094 10.991 27.3591 10.8069C27.4133 10.623 27.4878 10.4429 27.5826 10.2666C27.6777 10.0856 27.7948 9.91547 27.934 9.75604C28.0777 9.5969 28.2449 9.46008 28.4357 9.34553C28.631 9.23131 28.8517 9.14409 29.0979 9.08387C29.344 9.02364 29.6192 9.00445 29.9234 9.02622L33.1175 9.25477C33.2854 9.26679 33.461 9.29995 33.6442 9.35425C33.8323 9.40436 34.0143 9.4769 34.19 9.57186C34.3703 9.66718 34.5397 9.7869 34.6982 9.93102C34.8571 10.0706 34.9934 10.2383 35.1071 10.4341C35.2212 10.6254 35.3082 10.8446 35.3682 11.0915C35.4281 11.3384 35.4471 11.6145 35.4253 11.9197L34.9095 19.1281ZM43.4146 16.5158C43.4054 16.6433 43.3744 16.7602 43.3212 16.8663C43.2679 16.9723 43.1974 17.0634 43.11 17.1396C43.0272 17.2115 42.9296 17.2663 42.8176 17.3041C42.7099 17.3421 42.5945 17.3568 42.4722 17.348L38.4676 17.0615C38.2497 17.0459 38.0176 17.0041 37.7715 16.9361C37.53 16.8685 37.2927 16.7714 37.0599 16.6449C36.8274 16.5138 36.6038 16.3558 36.3888 16.171C36.1787 15.982 35.9983 15.7608 35.8476 15.5073C35.6972 15.2494 35.5812 14.9572 35.4996 14.6309C35.4225 14.3049 35.3983 13.9415 35.427 13.5406L35.7204 9.44103L37.491 9.56773L37.1977 13.6673C37.1811 13.8996 37.2047 14.1119 37.2685 14.3042C37.3372 14.4922 37.4349 14.6572 37.5617 14.799C37.6884 14.9409 37.84 15.0547 38.0164 15.1406C38.1976 15.2222 38.395 15.2707 38.6084 15.286L41.707 15.5077L42.1084 9.89814L43.879 10.0248L43.4146 16.5158ZM51.393 15.5278C51.3754 15.7738 51.3132 16.0371 51.2065 16.318C51.1001 16.5942 50.9402 16.8483 50.7273 17.0803C50.5194 17.3081 50.2529 17.4927 49.9278 17.6343C49.6074 17.7762 49.2249 17.8312 48.7799 17.7994L45.5859 17.5708C45.3405 17.5533 45.078 17.491 44.7984 17.384C44.5231 17.2773 44.2698 17.1195 44.0381 16.9107C43.8113 16.6976 43.6275 16.4303 43.4862 16.1089C43.3452 15.7829 43.2909 15.3967 43.3229 14.9503C43.3405 14.7043 43.4026 14.4409 43.5094 14.1601C43.6161 13.8794 43.7736 13.6251 43.9815 13.3973C44.1944 13.1653 44.4611 12.9783 44.7815 12.8365C45.1066 12.6949 45.4915 12.64 45.9364 12.6718L49.1305 12.9004L49.0092 14.5949L45.8152 14.3664C45.5744 14.3491 45.3831 14.411 45.2407 14.5519C45.0982 14.6882 45.0196 14.8657 45.0039 15.0843C44.9873 15.3167 45.0492 15.5042 45.1896 15.647C45.3347 15.7856 45.5118 15.8624 45.7207 15.8773L48.9012 16.1049C49.1419 16.1221 49.3331 16.0626 49.4752 15.9262C49.6172 15.7899 49.6963 15.6124 49.7119 15.3938L49.8894 12.9135C49.906 12.6812 49.8466 12.4915 49.7108 12.3444C49.58 12.1977 49.4055 12.1166 49.1877 12.101L45.299 11.8227L45.4197 10.1351L49.3084 10.4133C49.5534 10.4309 49.8136 10.493 50.0889 10.5997C50.3689 10.7067 50.622 10.8667 50.8488 11.0798C51.0801 11.2887 51.2666 11.5561 51.4076 11.8821C51.5489 12.2036 51.6034 12.5875 51.5714 13.0339L51.393 15.5278ZM59.5908 16.0663C59.5689 16.3715 59.5104 16.6443 59.4155 16.8848C59.3214 17.1207 59.2039 17.3275 59.0632 17.5051C58.9232 17.6782 58.7644 17.8248 58.5868 17.9449C58.4096 18.0604 58.225 18.1525 58.0332 18.2212C57.8456 18.2902 57.6552 18.3383 57.4616 18.3657C57.2726 18.3888 57.0943 18.3943 56.9265 18.3823L53.7325 18.1538C53.4281 18.132 53.1586 18.0738 52.9235 17.9791C52.6883 17.8845 52.4824 17.7668 52.3052 17.6258C52.1329 17.4808 51.9872 17.3193 51.8676 17.1413C51.7527 16.9637 51.6608 16.7808 51.5919 16.5928C51.5237 16.4002 51.4758 16.209 51.4483 16.0194C51.4255 15.8254 51.42 15.6465 51.4317 15.4825L51.6038 13.0774C51.6364 12.6219 51.7459 12.2428 51.9319 11.9402C52.1224 11.6334 52.3474 11.3908 52.6068 11.2125C52.8708 11.0299 53.1513 10.9058 53.448 10.84C53.7446 10.7742 54.0156 10.7502 54.261 10.7677L57.455 10.9963L57.3279 12.7727L54.1475 12.5452C53.9114 12.5283 53.7276 12.5769 53.5961 12.6911C53.4649 12.8008 53.391 12.9718 53.3744 13.2041L53.2033 15.5955C53.186 15.8369 53.2324 16.0234 53.3416 16.1548C53.4551 16.2866 53.6278 16.3607 53.8596 16.3773L57.0536 16.6058C57.294 16.623 57.4778 16.5744 57.6046 16.4599C57.7315 16.3453 57.8032 16.1719 57.8198 15.9396L58.3933 7.92491L60.1643 8.05163L59.5908 16.0663ZM67.0016 16.5966C66.9797 16.9018 66.9216 17.1746 66.8267 17.4151C66.7322 17.651 66.6147 17.8578 66.4744 18.0354C66.334 18.2085 66.1752 18.3551 65.998 18.4752C65.8208 18.5907 65.6362 18.6828 65.4444 18.7515C65.2568 18.8205 65.066 18.8686 64.8724 18.896C64.6838 18.9191 64.5055 18.9247 64.3373 18.9126L59.5428 18.5696L59.6699 16.7931L64.4509 17.1352C64.6916 17.1524 64.8777 17.1039 65.0088 16.9897C65.1403 16.8755 65.2144 16.7022 65.231 16.4699C65.242 15.9945 65.0205 15.7406 64.5666 15.7081L61.8222 15.5118C61.4316 15.4838 61.1053 15.3918 60.8425 15.2356C60.5797 15.0795 60.3694 14.8927 60.2117 14.6754C60.0582 14.4584 59.9517 14.2287 59.8914 13.9863C59.8358 13.7443 59.8151 13.5207 59.8297 13.3157C59.8581 12.9194 59.9526 12.592 60.1124 12.3333C60.2729 12.0701 60.4657 11.8618 60.691 11.7085C60.9166 11.5553 61.1566 11.4511 61.4115 11.3961C61.6667 11.3365 61.9032 11.3146 62.1214 11.3302L66.4734 11.6416L66.3462 13.4181L62.0079 13.1076C61.9171 13.1011 61.8436 13.1073 61.7876 13.1262C61.7363 13.1408 61.6959 13.1654 61.6657 13.1999C61.6409 13.2302 61.6247 13.2656 61.6171 13.3063C61.6098 13.3424 61.6053 13.3787 61.6027 13.4152C61.6017 13.4884 61.6112 13.5462 61.6312 13.5889C61.6508 13.6315 61.6759 13.663 61.7064 13.6836C61.7416 13.7044 61.7792 13.7185 61.8197 13.726C61.8651 13.7292 61.9086 13.7324 61.9493 13.7353L64.6938 13.9317C65.1477 13.9641 65.5277 14.0737 65.834 14.2605C66.1399 14.4472 66.3817 14.6728 66.5591 14.9373C66.7368 15.1973 66.8581 15.4761 66.9235 15.7738C66.9935 16.0718 67.0195 16.3461 67.0016 16.5966Z" fill="url(#paint0_linear_38_6799)"/>
<path fill-rule="evenodd" clip-rule="evenodd" d="M5.41886 12.0782L7.89228 14.9423L13.5341 10.0378L12.8098 9.19911C12.8008 9.1987 12.7917 9.19821 12.7827 9.19756L8.41784 8.88523C7.91121 8.84897 7.52997 8.40751 7.56634 7.89922C7.60271 7.39093 8.04292 7.00828 8.54956 7.04454L11.1072 7.22755L8.64808 4.38L3.00627 9.2845L3.71648 10.1069C3.72786 10.1073 3.73927 10.1079 3.75072 10.1087L8.11554 10.421C8.62218 10.4573 9.00342 10.8987 8.96705 11.407C8.93068 11.9153 8.49046 12.298 7.98383 12.2617L5.41886 12.0782ZM0.875121 8.6959C0.619145 8.91842 0.591345 9.30693 0.813028 9.56363L7.30462 17.0806C7.52631 17.3373 7.91354 17.3651 8.16952 17.1425L15.6653 10.6264C15.9213 10.4039 15.9491 10.0154 15.7274 9.75867L9.23578 2.24167C9.01409 1.98497 8.62685 1.95726 8.37087 2.17978L0.875121 8.6959Z" fill="url(#paint1_linear_38_6799)"/>
<path d="M82.9408 12.6526L73.0179 11.9425C70.9629 11.7955 69.1773 13.3477 69.0297 15.4095L69.0297 15.4095C68.8822 17.4713 70.4286 19.262 72.4837 19.409L82.4065 20.1191C84.4616 20.2661 86.2472 18.7139 86.3947 16.6521L86.3947 16.6521C86.5422 14.5903 84.9959 12.7996 82.9408 12.6526Z" fill="white"/>
<path d="M72.9062 14.0923L74.3083 14.1926C74.6361 14.2161 74.8875 14.3181 75.0631 14.4988C75.2387 14.6795 75.3158 14.9161 75.2948 15.2088C75.2777 15.4478 75.1741 15.6414 74.984 15.7899C75.2395 15.9823 75.355 16.2503 75.3304 16.5937C75.3075 16.9133 75.1839 17.1566 74.9597 17.3237C74.7384 17.4879 74.4419 17.5568 74.0695 17.5301L72.6674 17.4298L72.9062 14.0923ZM74.1705 16.997C74.3254 17.0081 74.4536 16.9738 74.5549 16.8939C74.6568 16.8112 74.7126 16.6966 74.7231 16.5503C74.7336 16.4039 74.6946 16.2826 74.6055 16.1861C74.5199 16.0899 74.3981 16.0362 74.2401 16.0249L73.3827 15.9635L73.3132 16.9357L74.1705 16.997ZM74.2472 15.4896C74.3722 15.4985 74.4745 15.4698 74.5538 15.4034C74.6337 15.3341 74.6778 15.2412 74.6862 15.1247C74.6945 15.0082 74.6638 14.913 74.5942 14.839C74.525 14.765 74.4276 14.7235 74.3026 14.7145L73.4763 14.6554L73.4209 15.4304L74.2472 15.4896ZM76.854 17.7834C76.6097 17.7659 76.3967 17.6937 76.2142 17.5665C76.0348 17.4396 75.8986 17.2753 75.8054 17.0735C75.7148 16.8719 75.6782 16.6531 75.695 16.4172C75.7121 16.1783 75.7795 15.967 75.8977 15.7833C76.0187 15.5968 76.1737 15.4548 76.3633 15.3573C76.5557 15.26 76.765 15.2194 76.9914 15.2356C77.2356 15.2531 77.443 15.322 77.6139 15.4423C77.785 15.5596 77.9103 15.7127 77.9897 15.9014C78.0718 16.0904 78.1052 16.294 78.0896 16.512C78.0823 16.6135 78.066 16.6949 78.0405 16.7561L76.2901 16.6309C76.2952 16.8113 76.3533 16.9596 76.4648 17.0756C76.5763 17.1917 76.7196 17.256 76.8955 17.2686C77.0263 17.2779 77.1397 17.259 77.236 17.2119C77.3351 17.162 77.4168 17.0897 77.4805 16.9952L77.9372 17.262C77.8498 17.4359 77.7086 17.5714 77.5132 17.6685C77.3179 17.7626 77.0982 17.8009 76.854 17.7834ZM77.4789 16.2656C77.4744 16.1152 77.4252 15.9902 77.3305 15.8903C77.236 15.7875 77.1117 15.7306 76.9568 15.7195C76.8081 15.7088 76.6783 15.7446 76.5678 15.8267C76.4571 15.9059 76.3799 16.0249 76.3358 16.1839L77.4789 16.2656ZM79.5455 17.949C79.2714 17.9294 79.064 17.8395 78.9228 17.6793C78.785 17.5163 78.7257 17.2975 78.7454 17.0227L78.8223 15.9475L78.4026 15.9175L78.4401 15.3933L78.4848 15.3965C78.604 15.4051 78.6982 15.3803 78.7683 15.3223C78.8385 15.2642 78.8776 15.1755 78.8861 15.056L78.8996 14.8679L79.4847 14.9097L79.445 15.4652L80.003 15.5052L79.9655 16.0293L79.4075 15.9894L79.3328 17.0332C79.3146 17.2871 79.4422 17.4238 79.7164 17.4434C79.7637 17.4468 79.8161 17.446 79.8734 17.4411L79.8372 17.9474C79.741 17.9555 79.6438 17.956 79.5455 17.949ZM81.0043 18.0804C80.7481 18.0621 80.5487 17.9848 80.4059 17.8485C80.2661 17.7124 80.2038 17.5368 80.2191 17.3218C80.2339 17.1157 80.316 16.9505 80.4658 16.8261C80.6152 16.7017 80.8316 16.6271 81.1144 16.6023L81.8461 16.5376L81.8519 16.457C81.8596 16.3495 81.8243 16.2584 81.7458 16.1837C81.6703 16.1093 81.5656 16.0673 81.4316 16.0577C81.3066 16.0487 81.1927 16.0751 81.0896 16.1368C80.9893 16.1957 80.9131 16.2788 80.8606 16.3861L80.3997 16.1189C80.4848 15.9329 80.6266 15.7884 80.8256 15.6856C81.0242 15.5828 81.2458 15.5401 81.4901 15.5575C81.6865 15.5716 81.8578 15.6214 82.0043 15.7069C82.1541 15.7897 82.2659 15.9012 82.3394 16.0416C82.4166 16.1792 82.449 16.3316 82.437 16.4989L82.321 18.1206L81.7673 18.081L81.7859 17.8211C81.5803 18.0166 81.3196 18.103 81.0043 18.0804ZM80.828 17.3428C80.822 17.4265 80.8487 17.4959 80.9076 17.5511C80.9667 17.6034 81.0453 17.633 81.1436 17.6401C81.3249 17.6531 81.478 17.607 81.6023 17.5018C81.7267 17.3936 81.7948 17.2544 81.807 17.0842L81.814 16.9856L81.1951 17.0449C81.0773 17.0605 80.9879 17.0931 80.9278 17.1428C80.8675 17.1896 80.8342 17.2562 80.828 17.3428Z" fill="#232D39"/>
</g>
<defs>
<linearGradient id="paint0_linear_38_6799" x1="17.1363" y1="10.4449" x2="67.6134" y2="14.0569" gradientUnits="userSpaceOnUse">
<stop stop-color="#D0F091"/>
<stop offset="0.5" stop-color="#88C80C"/>
<stop offset="1" stop-color="#218208"/>
</linearGradient>
<linearGradient id="paint1_linear_38_6799" x1="8.8162" y1="2.03102" x2="7.72423" y2="17.2913" gradientUnits="userSpaceOnUse">
<stop stop-color="#D0F091"/>
<stop offset="1" stop-color="#268609"/>
</linearGradient>
<clipPath id="clip0_38_6799">
<rect width="86.4197" height="17.9654" fill="white" transform="translate(1.28906 0.303223) rotate(4.09291)"/>
</clipPath>
</defs>
</svg>
