<svg width="63" height="64" viewBox="0 0 63 64" fill="none" xmlns="http://www.w3.org/2000/svg">
<rect x="1.04893" y="1.12254" width="61.4101" height="61.4101" rx="30.7051" fill="#F9CC00"/>
<rect x="1.04893" y="1.12254" width="61.4101" height="61.4101" rx="30.7051" stroke="#1F2935" stroke-width="1.04085"/>
<g clip-path="url(#clip0_38_4374)">
<path d="M32.4957 48.4743C28.5955 48.485 24.8261 47.0686 21.898 44.4921C18.97 41.9155 17.0856 38.3569 16.6001 34.487C16.1146 30.6171 17.0615 26.7032 19.2623 23.4832C21.4631 20.2632 24.7658 17.9596 28.5478 17.0064C32.3298 16.0533 36.3298 16.5166 39.7938 18.309C43.2578 20.1013 45.9465 23.099 47.3531 26.7368C48.7596 30.3746 48.7868 34.4012 47.4296 38.0577C46.0724 41.7142 43.4244 44.7479 39.985 46.5869C37.6803 47.8186 35.1089 48.4666 32.4957 48.4743ZM32.4957 18.152C28.868 18.1375 25.3691 19.4958 22.7014 21.9542C20.0336 24.4126 18.3946 27.7891 18.1132 31.4059C17.8318 35.0227 18.929 38.6121 21.1845 41.4535C23.4399 44.2948 26.6867 46.1779 30.273 46.7246C33.8593 47.2713 37.5197 46.4411 40.5193 44.4008C43.5189 42.3605 45.6357 39.2611 46.4448 35.7247C47.2538 32.1884 46.6953 28.4768 44.8812 25.3353C43.0671 22.1937 40.1318 19.8546 36.6645 18.7875C35.3096 18.3708 33.9006 18.1567 32.483 18.152H32.4957Z" fill="#141B23"/>
<path d="M29.472 39.681L25.2746 53.4791L26.7945 53.9414L30.992 40.1434L29.472 39.681Z" fill="#141B23"/>
<path d="M38.1611 11.0927L33.8703 25.1978L35.3902 25.6602L39.6811 11.5551L38.1611 11.0927Z" fill="#141B23"/>
<path d="M39.9047 34.1114L39.4426 35.6314L53.3964 39.8736L53.8585 38.3535L39.9047 34.1114Z" fill="#141B23"/>
<path d="M11.4633 25.4669L11.0012 26.9869L24.955 31.229L25.4171 29.709L11.4633 25.4669Z" fill="#141B23"/>
<path d="M32.4796 41.6683C37.5353 41.6683 41.6338 37.5698 41.6338 32.5141C41.6338 27.4584 37.5353 23.3599 32.4796 23.3599C27.4239 23.3599 23.3254 27.4584 23.3254 32.5141C23.3254 37.5698 27.4239 41.6683 32.4796 41.6683Z" fill="#141B23"/>
<path d="M32.4864 42.4704C30.0538 42.4765 27.703 41.5924 25.8771 39.9849C24.0513 38.3774 22.8766 36.1575 22.5744 33.7437C22.2723 31.3299 22.8636 28.8889 24.2368 26.8809C25.6101 24.873 27.6705 23.4367 30.0295 22.843C32.3886 22.2492 34.8834 22.5389 37.0436 23.6575C39.2038 24.7761 40.8802 26.6462 41.7568 28.9155C42.6333 31.1847 42.6495 33.6962 41.8023 35.9765C40.955 38.2568 39.3029 40.1485 37.1572 41.2948C35.7202 42.0637 34.1162 42.4674 32.4864 42.4704ZM32.4642 24.1525C30.3473 24.1505 28.308 24.9491 26.7556 26.3882C25.2032 27.8272 24.2524 29.8002 24.0942 31.9111C23.936 34.022 24.5821 36.1147 25.9027 37.769C27.2233 39.4234 29.1208 40.5171 31.2143 40.8306C33.3078 41.144 35.4424 40.6541 37.1897 39.4591C38.9369 38.2642 40.1676 36.4525 40.6347 34.3879C41.1017 32.3232 40.7706 30.1583 39.7078 28.3276C38.6449 26.4969 36.929 25.136 34.9044 24.5179C34.1136 24.2757 33.2912 24.1526 32.4642 24.1525Z" fill="#141B23"/>
<path d="M34.982 21.5515L28.4523 43.0162L29.9723 43.4785L36.5019 22.0139L34.982 21.5515Z" fill="#F9CC00"/>
<path d="M21.9711 28.4942L21.509 30.0142L42.9748 36.5401L43.4369 35.0201L21.9711 28.4942Z" fill="#F9CC00"/>
</g>
<defs>
<clipPath id="clip0_38_4374">
<rect width="42.8541" height="42.8541" fill="white" transform="translate(11.0109 11.0884)"/>
</clipPath>
</defs>
</svg>
