<svg width="20" height="17" viewBox="0 0 20 17" fill="none" xmlns="http://www.w3.org/2000/svg">
<path d="M19.8008 4.08398C19.8008 4.08398 19.6055 2.70507 19.0039 2.09961C18.2422 1.30273 17.3906 1.29882 17 1.25195C14.2031 1.04883 10.0039 1.04883 10.0039 1.04883H9.99609C9.99609 1.04883 5.79688 1.04883 3 1.25195C2.60938 1.29882 1.75781 1.30273 0.996094 2.09961C0.394531 2.70507 0.203125 4.08398 0.203125 4.08398C0.203125 4.08398 0 5.70507 0 7.32226V8.83789C0 10.4551 0.199219 12.0762 0.199219 12.0762C0.199219 12.0762 0.394531 13.4551 0.992187 14.0606C1.75391 14.8574 2.75391 14.8301 3.19922 14.916C4.80078 15.0684 10 15.1153 10 15.1153C10 15.1153 14.2031 15.1074 17 14.9082C17.3906 14.8613 18.2422 14.8574 19.0039 14.0606C19.6055 13.4551 19.8008 12.0762 19.8008 12.0762C19.8008 12.0762 20 10.459 20 8.83789V7.32226C20 5.70507 19.8008 4.08398 19.8008 4.08398ZM7.93359 10.6778V5.05664L13.3359 7.87695L7.93359 10.6778Z" fill="white"/>
</svg>
