<svg width="18" height="19" viewBox="0 0 18 19" fill="none" xmlns="http://www.w3.org/2000/svg">
<g clip-path="url(#clip0_38_7134)">
<mask id="mask0_38_7134" style="mask-type:luminance" maskUnits="userSpaceOnUse" x="0" y="0" width="18" height="19">
<path d="M18 0.0839844H0V18.084H18V0.0839844Z" fill="white"/>
</mask>
<g mask="url(#mask0_38_7134)">
<path d="M5.66262 16.397C12.4534 16.397 16.1687 10.7696 16.1687 5.89093C16.1687 5.73273 16.1652 5.57101 16.1581 5.4128C16.8808 4.89013 17.5047 4.24273 18 3.50101C17.3269 3.80049 16.6122 3.99607 15.8804 4.08108C16.651 3.61922 17.2279 2.89364 17.5043 2.03886C16.7794 2.46845 15.9867 2.7715 15.1601 2.93499C14.6032 2.34321 13.8667 1.95137 13.0647 1.82007C12.2628 1.68877 11.4399 1.82532 10.7233 2.2086C10.0067 2.59189 9.43635 3.20056 9.10038 3.94052C8.76442 4.68047 8.68157 5.5105 8.86465 6.30226C7.39688 6.2286 5.96095 5.84731 4.64998 5.18311C3.33902 4.5189 2.18228 3.58661 1.25472 2.44667C0.783299 3.25946 0.639043 4.22127 0.851273 5.1366C1.0635 6.05194 1.6163 6.85212 2.39731 7.37452C1.81097 7.3559 1.23748 7.19804 0.724219 6.91397V6.95968C0.723693 7.81264 1.01857 8.63947 1.55873 9.29961C2.09889 9.95975 2.851 10.4125 3.68719 10.5808C3.14404 10.7294 2.57399 10.751 2.02113 10.6441C2.25709 11.3776 2.71618 12.0192 3.33433 12.4793C3.95247 12.9393 4.69884 13.1949 5.46925 13.2105C4.16132 14.2378 2.54563 14.7951 0.882422 14.7924C0.587465 14.792 0.292799 14.774 0 14.7383C1.68964 15.8224 3.65515 16.398 5.66262 16.397Z" fill="white"/>
</g>
</g>
<defs>
<clipPath id="clip0_38_7134">
<rect width="18" height="18" fill="white" transform="translate(0 0.0839844)"/>
</clipPath>
</defs>
</svg>
