<svg width="18" height="21" viewBox="0 0 18 21" fill="none" xmlns="http://www.w3.org/2000/svg">
<g clip-path="url(#clip0_38_7140)">
<path d="M13.2265 0.0839844H9.85586V13.7072C9.85586 15.3304 8.55951 16.6637 6.94624 16.6637C5.33296 16.6637 4.03659 15.3304 4.03659 13.7072C4.03659 12.113 5.30416 10.8086 6.85983 10.7507V7.33037C3.43162 7.38831 0.666016 10.1999 0.666016 13.7072C0.666016 17.2434 3.48923 20.084 6.97506 20.084C10.4609 20.084 13.2841 17.2144 13.2841 13.7072V6.72165C14.5517 7.6492 16.1073 8.19992 17.7494 8.22893V4.80862C15.2143 4.72166 13.2265 2.6347 13.2265 0.0839844Z" fill="white"/>
</g>
<defs>
<clipPath id="clip0_38_7140">
<rect width="18" height="20" fill="white" transform="translate(0 0.0839844)"/>
</clipPath>
</defs>
</svg>
